<?xml version="1.0" encoding="utf-8"?>
<!-- Generator: Adobe Illustrator 16.2.0, SVG Export Plug-In . SVG Version: 6.00 Build 0)  -->
<!DOCTYPE svg PUBLIC "-//W3C//DTD SVG 1.1//EN" "http://www.w3.org/Graphics/SVG/1.1/DTD/svg11.dtd">
<svg version="1.1" id="Layer_1" xmlns="http://www.w3.org/2000/svg" xmlns:xlink="http://www.w3.org/1999/xlink" x="0px" y="0px"
	 width="182px" height="252px" viewBox="0 0 182 252" enable-background="new 0 0 182 252" xml:space="preserve">
<g id="Layer_3">
	<g>
		<path fill="#FFFFFF" d="M2,249.619h5.337v-5.496h2.641c4.783,0,8.275-2.395,8.275-6.93v-0.057c0-4.26-3.143-6.759-7.999-6.759H2
			V249.619z M7.337,239.949v-5.086h2.505c1.914,0,3.072,0.877,3.072,2.529v0.055c0,1.503-1.158,2.502-3.054,2.502H7.337z
			 M30.184,250c5.941,0,10.395-4.48,10.395-10.003v-0.048c0-5.525-4.399-9.949-10.34-9.949c-5.937,0-10.396,4.48-10.396,9.997v0.058
			C19.841,245.572,24.246,250,30.184,250z M30.238,245.189c-2.919,0-4.919-2.412-4.919-5.192v-0.048c0-2.776,1.95-5.143,4.865-5.143
			c2.939,0,4.944,2.416,4.944,5.189v0.057C35.127,242.826,33.174,245.189,30.238,245.189z M50.776,249.951
			c4.678,0,7.787-2.346,7.787-6.273v-0.055c0-3.594-2.755-5.021-7.186-5.988c-2.658-0.601-3.323-0.984-3.323-1.861v-0.065
			c0-0.675,0.634-1.228,1.927-1.228c1.71,0,3.63,0.654,5.387,1.896l2.663-3.772c-2.09-1.668-4.648-2.551-7.91-2.551
			c-4.627,0-7.458,2.586-7.458,6.157v0.052c0,3.965,3.171,5.116,7.264,6.051c2.611,0.604,3.247,1.035,3.247,1.838v0.059
			c0,0.82-0.777,1.312-2.209,1.312c-2.224,0-4.334-0.793-6.231-2.311l-2.973,3.553C44.127,248.877,47.37,249.951,50.776,249.951z
			 M68.427,249.951c4.68,0,7.784-2.346,7.784-6.273v-0.055c0-3.594-2.75-5.021-7.181-5.988c-2.657-0.601-3.322-0.984-3.322-1.861
			v-0.065c0-0.675,0.629-1.228,1.925-1.228c1.708,0,3.628,0.654,5.388,1.896l2.662-3.772c-2.088-1.668-4.648-2.551-7.914-2.551
			c-4.621,0-7.451,2.586-7.451,6.157v0.052c0,3.965,3.168,5.116,7.263,6.051c2.607,0.604,3.247,1.035,3.247,1.838v0.059
			c0,0.82-0.777,1.312-2.209,1.312c-2.228,0-4.338-0.793-6.236-2.311l-2.97,3.553C61.779,248.877,65.023,249.951,68.427,249.951z
			 M78.912,249.619h5.355v-19.24h-5.355V249.619z M87.789,249.619h9.93c4.582,0,7.277-2.014,7.277-5.307v-0.056
			c0-2.606-1.482-3.934-3.822-4.7c1.707-0.742,2.971-2.058,2.971-4.281v-0.053c0-1.326-0.465-2.346-1.24-3.105
			c-1.129-1.135-2.829-1.738-5.25-1.738h-9.865V249.619z M92.984,238.053v-3.381h3.459c1.604,0,2.418,0.604,2.418,1.643v0.062
			c0,1.125-0.9,1.679-2.525,1.679h-3.352V238.053z M92.984,245.332v-3.546h4.063c1.791,0,2.621,0.683,2.621,1.729v0.057
			c0,1.119-0.942,1.76-2.562,1.76H92.984z M107.447,249.619h14.654v-4.671h-9.32v-14.569h-5.334V249.619z M124.387,249.619H140
			v-4.53h-10.342v-3.052h9.238v-4.211h-9.238v-2.914h10.205v-4.533h-15.477V249.619L124.387,249.619z"/>
	</g>
	<path fill="#FFFFFF" d="M161.425,72.765l2.869,5.007c0.226,0.391,0.091,0.892-0.298,1.118c-0.387,0.226-0.885,0.091-1.109-0.299
		l-2.898-5.062c-3.639,1.484-7.895,0.086-9.915-3.437c-2.208-3.856-0.896-8.786,2.93-11.009c3.824-2.229,8.718-0.908,10.927,2.947
		C166.053,65.736,164.916,70.43,161.425,72.765z M162.275,62.991c-1.683-2.936-5.408-3.938-8.321-2.246
		c-2.913,1.695-3.912,5.449-2.228,8.385c1.678,2.937,5.405,3.942,8.317,2.249C162.959,69.684,163.959,65.928,162.275,62.991z"/>
	<g>
		<circle fill="#1D9ED9" cx="77" cy="165" r="12"/>
		<polygon fill="#FFFFFF" points="75,161.238 75,168.583 81.447,164.91 		"/>
	</g>
	<g>
		<circle fill="#FFFFFF" cx="51" cy="165" r="12"/>
		<polygon points="49,161.238 49,168.583 55.447,164.91 		"/>
	</g>
	<path fill="#FFFFFF" d="M105,186.471c-0.277-0.393-0.596-0.77-0.954-1.119c-3.213-3.136-8.423-3.136-11.636,0
		c-3.214,3.137-3.214,8.224,0,11.359L105,209l12.59-12.289c3.215-3.137,3.215-8.223,0-11.359c-3.213-3.136-8.423-3.136-11.636,0
		C105.596,185.701,105.277,186.078,105,186.471z"/>
	<path fill="#1D9ED9" d="M73,186.471c-0.278-0.393-0.595-0.77-0.954-1.119c-3.213-3.136-8.423-3.136-11.636,0
		c-3.214,3.137-3.214,8.224,0,11.359L73,209l12.59-12.289c3.214-3.137,3.214-8.223,0-11.359c-3.213-3.136-8.423-3.136-11.636,0
		C73.595,185.701,73.278,186.078,73,186.471z"/>
	<polygon fill="#FFFFFF" points="58.745,2 55.394,2 55.394,3.257 57.906,3.257 49.256,11.905 49.256,9.394 48,9.394 48,12.744 
		48,14 49.256,14 52.607,14 52.607,12.744 50.194,12.744 58.745,4.195 58.745,6.607 60,6.607 60,3.257 60,2 	"/>
	<polygon fill="#1D9ED9" points="69.394,2 69.394,3.257 71.905,3.257 63.256,11.905 63.256,9.394 62,9.394 62,14 66.606,14 
		66.606,12.744 64.194,12.744 72.744,4.195 72.744,6.607 74,6.607 74,2 	"/>
	<g>
		<polyline fill="#FFFFFF" points="76.876,14 80.719,10.155 80.719,12.556 81.969,12.556 81.969,7.971 77.386,7.971 77.386,9.222 
			79.885,9.222 76,13.108 		"/>
		<polyline fill="#FFFFFF" points="87.104,2 83.218,5.886 83.218,3.387 81.969,3.387 81.969,7.971 86.551,7.971 86.551,6.721 
			84.151,6.721 88,2.872 		"/>
	</g>
	<g>
		<polyline fill="#1D9ED9" points="90.876,14 94.719,10.156 94.719,12.556 95.969,12.556 95.969,7.971 91.386,7.971 91.386,9.222 
			93.885,9.222 90,13.108 		"/>
		<polyline fill="#1D9ED9" points="101.104,2 97.219,5.886 97.219,3.387 95.969,3.387 95.969,7.971 100.551,7.971 100.551,6.721 
			98.152,6.721 102,2.873 		"/>
	</g>
	<path fill="#FFFFFF" d="M67.287,82.404C68.425,83.437,69,84.695,69,86.181c0,1.484-0.575,2.757-1.713,3.827L58.497,98l-8.792-7.992
		C48.566,88.938,48,87.665,48,86.181c0-1.486,0.566-2.745,1.706-3.777C50.701,81.465,51.933,81,53.399,81
		c1.442,0,2.688,0.465,3.733,1.404l1.365,1.255l1.416-1.255C60.905,81.465,62.127,81,63.577,81
		C65.011,81,66.246,81.465,67.287,82.404z"/>
	<g>
		<path fill="#FFFFFF" d="M37.578,43.184C37.858,43.029,38,43.098,38,43.389v7.615c0,0.221-0.12,0.442-0.355,0.662
			C37.405,51.89,37.168,52,36.946,52H20.057c-0.229,0-0.455-0.11-0.696-0.333C19.122,51.446,19,51.226,19,51.004v-7.615
			c0-0.292,0.147-0.36,0.425-0.206l8.106,4.136c0.236,0.142,0.559,0.21,0.968,0.21s0.734-0.069,0.974-0.21L37.578,43.184z"/>
		<path fill="#FFFFFF" d="M19.048,40.285C19.071,40.095,19.255,40,19.595,40h17.854c0.541,0,0.68,0.217,0.424,0.668
			c-0.112,0.2-0.283,0.352-0.503,0.449c-0.118,0.049-0.799,0.408-2.048,1.053l-3.804,2.009c-1.306,0.693-1.986,1.047-2.044,1.075
			c-0.229,0.138-0.549,0.207-0.974,0.207c-0.409,0-0.732-0.069-0.968-0.207c-0.057-0.028-0.742-0.382-2.049-1.075l-3.796-2.009
			c-1.256-0.645-1.936-1.003-2.049-1.053C19.185,40.868,18.988,40.591,19.048,40.285z"/>
	</g>
	<g>
		<path fill="#FFFFFF" d="M45.208,20.171c0.8-0.78,1.776-1.172,2.93-1.172c1.158,0,2.135,0.392,2.938,1.172
			c0.8,0.779,1.203,1.724,1.203,2.83c0,1.105-0.411,2.048-1.224,2.82C50.221,26.608,49.252,27,48.137,27
			c-1.104,0-2.083-0.392-2.912-1.178C44.413,25.049,44,24.107,44,23.001S44.402,20.951,45.208,20.171z"/>
		<path fill="#FFFFFF" d="M58.862,27c-1.108,0-2.079-0.392-2.91-1.178c-0.814-0.772-1.226-1.715-1.226-2.82
			c0-1.106,0.401-2.051,1.205-2.83c0.8-0.78,1.776-1.172,2.931-1.172c1.157,0,2.137,0.392,2.936,1.172
			c0.8,0.779,1.202,1.724,1.202,2.83c0,1.105-0.409,2.048-1.223,2.82C60.944,26.608,59.975,27,58.862,27z"/>
	</g>
	<path fill="#FFFFFF" d="M115,83.009c-0.562,0.851-1.279,1.597-2.146,2.231v0.549c0,1.974-0.457,3.873-1.367,5.701
		c-0.918,1.835-2.332,3.373-4.25,4.623C105.309,97.372,103.1,98,100.62,98c-2.42,0-4.625-0.64-6.62-1.91
		c0.275,0.031,0.622,0.047,1.048,0.047c1.996,0,3.777-0.61,5.343-1.819c-0.97-0.031-1.822-0.329-2.545-0.893
		c-0.722-0.562-1.214-1.264-1.475-2.117c0.145,0.063,0.4,0.083,0.779,0.083c0.392,0,0.777-0.037,1.139-0.13
		c-0.955-0.205-1.77-0.69-2.432-1.474c-0.659-0.78-0.991-1.704-0.991-2.767v-0.049c0.55,0.306,1.19,0.489,1.917,0.548
		c-1.277-0.882-1.917-2.082-1.917-3.601c0-0.715,0.198-1.429,0.596-2.14c2.358,2.871,5.324,4.357,8.899,4.465
		c-0.092-0.272-0.133-0.592-0.133-0.959c0-1.184,0.42-2.192,1.26-3.032c0.85-0.832,1.875-1.253,3.07-1.253
		c1.248,0,2.285,0.442,3.109,1.322c0.88-0.182,1.791-0.518,2.736-1.002c-0.289,1.002-0.91,1.798-1.868,2.375
		C113.368,83.566,114.195,83.344,115,83.009z"/>
	<g>
		<path fill="#FFFFFF" d="M12.814,102.105V102H7.941c-1.078,0-2.157,0.377-3.201,1.104c-0.492,0.33-0.894,0.825-1.222,1.481
			c-0.33,0.664-0.493,1.357-0.493,2.127c0,1.679,0.516,2.817,1.562,3.455c0.663,0.414,1.453,0.654,2.335,0.654h0.291l-0.035,0.293
			c0,0.588,0.219,1.219,0.674,1.883H7.814c-0.99,0-2.115,0.206-3.389,0.579c-0.708,0.25-1.282,0.643-1.745,1.254
			C2.221,115.398,2,116.125,2,116.981c0,0.873,0.203,1.613,0.592,2.213c0.398,0.593,0.926,1.026,1.597,1.249
			C5.204,120.818,6.11,121,6.921,121c0.027,0,0.05-0.039,0.087-0.039l0.081,0.021h0.087c1.171,0,2.233-0.244,3.165-0.723
			c1.655-0.779,2.471-2.165,2.471-4.17c0-1.26-0.746-2.547-2.205-3.849c-0.702-0.664-1.057-1.15-1.057-1.391
			c0-0.221,0.263-0.609,0.791-1.161c0.974-0.797,1.454-1.941,1.454-3.39c0-0.92-0.096-1.625-0.307-2.131
			c-0.211-0.487-0.583-0.87-1.147-1.165c0.169-0.082,0.44-0.119,0.821-0.119C12.259,102.645,12.814,102.418,12.814,102.105z
			 M9.928,114.646c0.567,0.447,0.877,1.068,0.933,1.821c0.057,0.74-0.201,1.385-0.779,1.896c-0.53,0.496-1.276,0.781-2.197,0.852
			c-0.93,0.107-1.774-0.057-2.521-0.465c-0.777-0.42-1.175-0.994-1.234-1.77c-0.072-0.796,0.265-1.479,0.979-2.067
			c0.714-0.578,1.479-0.92,2.321-0.92h0.333C8.646,113.994,9.355,114.207,9.928,114.646z M9.532,108.088
			c-0.295,0.789-0.747,1.252-1.336,1.436c-0.121,0.051-0.255,0.051-0.382,0.051c-0.551,0-1.045-0.27-1.515-0.727
			c-0.44-0.443-0.766-1.033-0.972-1.764c-0.198-0.726-0.189-1.513,0.036-2.353c0.238-0.719,0.654-1.171,1.219-1.333
			c0.134-0.031,0.28-0.049,0.426-0.049c1.301,0,2.16,0.776,2.584,2.327C9.848,106.519,9.824,107.309,9.532,108.088z"/>
		<polygon fill="#FFFFFF" points="17.795,109.457 21,109.457 21,111.454 17.795,111.454 17.795,114.725 15.834,114.725 
			15.834,111.454 12.634,111.454 12.634,109.457 15.834,109.457 15.834,106.188 17.795,106.188 		"/>
	</g>
	<g>
		<path fill="#FFFFFF" d="M144,130c-5.523,0-10,4.479-10,10c0,4.096,2.463,7.611,5.986,9.159c-0.029-0.698-0.006-1.536,0.174-2.296
			c0.191-0.812,1.287-5.449,1.287-5.449s-0.32-0.639-0.32-1.582c0-1.48,0.859-2.589,1.928-2.589c0.91,0,1.35,0.683,1.35,1.501
			c0,0.914-0.582,2.283-0.883,3.55c-0.25,1.06,0.531,1.926,1.578,1.926c1.896,0,3.172-2.434,3.172-5.317
			c0-2.19-1.477-3.832-4.162-3.832c-3.032,0-4.924,2.263-4.924,4.791c0,0.869,0.258,1.484,0.66,1.961
			c0.187,0.219,0.211,0.306,0.146,0.557c-0.05,0.184-0.158,0.627-0.205,0.803c-0.065,0.254-0.271,0.344-0.5,0.252
			c-1.397-0.57-2.05-2.103-2.05-3.822c0-2.84,2.396-6.245,7.148-6.245c3.816,0,6.33,2.762,6.33,5.728
			c0,3.924-2.182,6.854-5.396,6.854c-1.077,0-2.094-0.583-2.44-1.246c0,0-0.582,2.304-0.705,2.749
			c-0.211,0.771-0.627,1.542-1.006,2.143c0.897,0.266,1.851,0.41,2.834,0.41c5.521,0,10-4.479,10-10.001
			C154,134.479,149.521,130,144,130z"/>
	</g>
	<path fill="#FFFFFF" d="M114.844,177.762c-0.084,0.896-0.445,1.625-1.084,2.188c-0.639,0.583-1.436,0.884-2.398,0.929
		c-2.064,0.073-4.854,0.123-8.359,0.123c-3.553,0-6.338-0.05-8.359-0.123c-0.97-0.045-1.771-0.346-2.42-0.929
		c-0.65-0.562-1-1.292-1.062-2.188c-0.105-1.806-0.158-3.166-0.158-4.076c0-0.916,0.053-2.268,0.158-4.043
		c0.062-0.914,0.412-1.654,1.062-2.227c0.647-0.573,1.45-0.867,2.42-0.891c2.021-0.103,4.808-0.155,8.359-0.155
		c3.55,0,6.332,0.054,8.359,0.155c0.964,0.022,1.761,0.316,2.398,0.891c0.639,0.57,1,1.312,1.084,2.227
		c0.1,1.775,0.156,3.127,0.156,4.043C115,174.596,114.943,175.956,114.844,177.762z M97.891,170.049v-1.406H92.85v1.406h1.695v8.21
		h1.626v-8.21H97.891z M97.768,153h2.068l-1.537,4.6c-0.02,0.041-0.143,0.365-0.357,0.969c-0.221,0.603-0.373,1.054-0.457,1.365
		v4.948H95.48v-4.728c-0.023-0.168-0.305-0.956-0.84-2.369L93.038,153h2.065l1.287,4.725h0.151L97.768,153z M101.996,178.259v-7.086
		h-1.413v5.378c-0.31,0.348-0.603,0.524-0.876,0.524c-0.249,0-0.375-0.154-0.375-0.466v-5.438h-1.471v5.965
		c0,0.809,0.345,1.219,1.031,1.219c0.545,0,1.106-0.293,1.689-0.871v0.773L101.996,178.259L101.996,178.259z M102.434,155.887
		c0.732,0,1.338,0.215,1.818,0.605c0.48,0.404,0.723,0.961,0.723,1.668v4.517c0,0.759-0.236,1.354-0.707,1.79
		c-0.467,0.415-1.108,0.631-1.926,0.631c-0.773,0-1.398-0.226-1.879-0.67c-0.482-0.439-0.722-1.046-0.722-1.781v-4.518
		c0-0.729,0.255-1.283,0.765-1.666C101.023,156.077,101.659,155.887,102.434,155.887z M102.873,157.585
		c-0.167-0.138-0.35-0.207-0.531-0.207c-0.189,0-0.357,0.069-0.504,0.188c-0.141,0.125-0.216,0.279-0.216,0.468v4.797
		c0,0.479,0.237,0.709,0.72,0.709c0.52,0,0.784-0.229,0.784-0.709v-4.797C103.126,157.868,103.041,157.718,102.873,157.585z
		 M107.605,172.85c0-1.183-0.465-1.785-1.381-1.785c-0.478,0-0.92,0.221-1.314,0.656v-3.078h-1.475v9.616h1.475v-0.56
		c0.439,0.415,0.896,0.623,1.377,0.623c0.879,0,1.318-0.528,1.318-1.561V172.85z M106.131,172.9v3.742
		c0,0.375-0.168,0.557-0.502,0.557c-0.271,0-0.512-0.092-0.719-0.278v-4.442c0.189-0.195,0.395-0.283,0.625-0.283
		C105.932,172.195,106.131,172.428,106.131,172.9z M111.646,164.882h-1.785v-1.002c-0.733,0.737-1.43,1.101-2.098,1.101
		c-0.865,0-1.287-0.52-1.287-1.565v-7.301h1.813v6.718c0,0.385,0.162,0.583,0.485,0.583c0.324,0,0.687-0.226,1.084-0.687v-6.614
		h1.785v8.768H111.646z M108.73,176.236c0,0.662,0.184,1.197,0.551,1.604s0.879,0.604,1.549,0.604c1.438,0,2.161-0.731,2.161-2.207
		v-0.528h-1.474v0.31v0.313c0,0.062-0.004,0.153-0.014,0.265c-0.011,0.114-0.031,0.199-0.064,0.252
		c-0.028,0.051-0.066,0.105-0.108,0.172c-0.042,0.058-0.103,0.105-0.188,0.135c-0.084,0.031-0.179,0.047-0.277,0.047
		c-0.418,0-0.633-0.332-0.633-0.994v-1.34h2.759v-1.807c0-0.646-0.175-1.152-0.534-1.517c-0.357-0.37-0.854-0.56-1.501-0.56
		c-0.649,0-1.179,0.197-1.597,0.58c-0.42,0.403-0.629,0.896-0.629,1.494V176.236z M111.518,173.773h-1.283v-0.769
		c0-0.519,0.225-0.787,0.658-0.787c0.42,0,0.625,0.269,0.625,0.787V173.773z"/>
	<g>
		<path fill="#FFFFFF" d="M126.492,185.904h1.963l-1.457,4.336c-0.02,0.037-0.135,0.348-0.338,0.91
			c-0.211,0.565-0.34,0.998-0.428,1.281v4.688h-1.885v-4.475c0-0.155-0.31-0.914-0.818-2.231L122,185.904h1.959l1.223,4.502h0.148
			L126.492,185.904z"/>
		<path fill="#FFFFFF" d="M132.617,189.217c-0.457-0.392-1.027-0.578-1.723-0.578c-0.736,0-1.328,0.18-1.816,0.541
			c-0.488,0.369-0.719,0.883-0.719,1.568v4.229c0,0.701,0.217,1.256,0.67,1.687c0.461,0.41,1.045,0.619,1.785,0.619
			c0.771,0,1.377-0.201,1.828-0.591c0.44-0.399,0.662-0.973,0.662-1.682v-4.236C133.305,190.107,133.076,189.588,132.617,189.217z
			 M131.508,195.157c0,0.444-0.209,0.67-0.703,0.67c-0.459,0-0.646-0.226-0.646-0.67v-4.499c0-0.18,0.051-0.324,0.19-0.434
			c0.137-0.125,0.287-0.188,0.469-0.188c0.175,0,0.314,0.065,0.478,0.202c0.156,0.121,0.213,0.263,0.213,0.419L131.508,195.157
			L131.508,195.157z"/>
		<path fill="#FFFFFF" d="M159.58,190.59v4.342c0,0.434-0.201,0.655-0.592,0.655c-0.322,0-0.582-0.108-0.85-0.325v-5.178
			c0.178-0.219,0.471-0.324,0.739-0.324C159.342,189.76,159.58,190.037,159.58,190.59z"/>
		<path fill="#FFFFFF" d="M138.953,197.12h-1.619v-0.972c-0.719,0.685-1.367,1.025-2,1.025c-0.816,0-1.23-0.49-1.23-1.469v-6.891
			h1.705v6.342c0,0.367,0.172,0.549,0.48,0.549c0.311,0,0.594-0.211,1.045-0.639v-6.252h1.619V197.12z"/>
		<path fill="#FFFFFF" d="M165.863,191.645h-1.437V190.7c0-0.604,0.228-0.902,0.74-0.902c0.49,0,0.694,0.3,0.694,0.902v0.944
			H165.863z"/>
		<path fill="#FFFFFF" d="M169.812,186.796c-0.095-1.063-0.519-1.927-1.267-2.583c-0.752-0.66-1.688-1.012-2.819-1.031
			c-2.379-0.127-5.662-0.182-9.832-0.182c-4.183,0-7.457,0.055-9.84,0.182c-1.134,0.021-2.078,0.371-2.839,1.031
			c-0.764,0.656-1.178,1.52-1.252,2.583c-0.127,2.078-0.187,3.638-0.187,4.702c0,1.066,0.06,2.639,0.187,4.73
			c0.074,1.039,0.488,1.891,1.252,2.557c0.761,0.662,1.705,1.023,2.839,1.068c2.383,0.098,5.657,0.146,9.84,0.146
			c4.125,0,7.399-0.049,9.832-0.146c1.131-0.045,2.067-0.406,2.819-1.068c0.748-0.666,1.172-1.518,1.267-2.557
			c0.127-2.094,0.188-3.664,0.188-4.73C170,190.434,169.939,188.874,169.812,186.796z M147.893,196.854h-1.975v-9.621h-1.98v-1.594
			h5.933v1.594h-1.978V196.854z M154.725,196.854h-1.707v-0.937c-0.627,0.662-1.319,1.004-1.959,1.004
			c-0.812,0-1.188-0.463-1.188-1.41v-6.952h1.709v6.338c0,0.364,0.131,0.545,0.428,0.545c0.318,0,0.654-0.203,1.013-0.613v-6.27
			h1.707v8.295H154.725z M161.285,195.075c0,1.213-0.506,1.809-1.535,1.809c-0.566,0-1.072-0.231-1.611-0.719v0.688h-1.705v-11.215
			h1.705v3.58c0.447-0.496,0.973-0.769,1.537-0.769c1.078,0,1.609,0.69,1.609,2.069V195.075z M167.662,192.881h-3.234v1.544
			c0,0.775,0.236,1.162,0.723,1.162c0.123,0,0.229-0.017,0.328-0.055c0.101-0.037,0.17-0.093,0.211-0.168
			c0.056-0.07,0.095-0.14,0.136-0.193c0.03-0.062,0.032-0.155,0.045-0.291c0.019-0.135-0.006-0.235-0.006-0.312v-0.354v-0.361h1.799
			v0.607c0,1.719-0.856,2.572-2.552,2.572c-0.782,0-1.399-0.234-1.829-0.703c-0.429-0.471-0.652-1.094-0.652-1.869v-3.688
			c0-0.701,0.244-1.283,0.74-1.729c0.485-0.465,1.119-0.689,1.879-0.689c0.758,0,1.36,0.215,1.781,0.644
			c0.411,0.437,0.633,1.024,0.633,1.774L167.662,192.881L167.662,192.881z"/>
	</g>
	<path fill="#FFFFFF" d="M152,35.977c-1.266,0.679-2.631,1.022-4.084,1.022c-0.771,0-1.494-0.096-2.162-0.316
		c-0.666-0.246-1.201-0.55-1.605-0.903c-0.459-0.385-0.764-0.803-0.903-1.249c-0.183-0.402-0.272-1.031-0.272-1.878V26.35H141
		v-2.535c1.406-0.479,2.412-1.327,3.029-2.546c0.311-0.694,0.512-1.446,0.586-2.27h2.555v4.534h4.244v2.816h-4.244v4.622
		c0,1.085,0.055,1.753,0.156,1.993c0.148,0.323,0.354,0.562,0.631,0.706c0.381,0.262,0.826,0.391,1.338,0.391
		c0.891,0,1.789-0.295,2.705-0.901V35.977z"/>
	<g>
		<path fill="#FFFFFF" d="M151.627,41.734c0,0.509-0.177,0.924-0.539,1.252c-0.355,0.323-0.791,0.486-1.312,0.486
			c-0.5,0-0.918-0.163-1.262-0.497c-0.344-0.33-0.514-0.746-0.514-1.241c0-0.517,0.17-0.925,0.504-1.243
			c0.338-0.324,0.771-0.491,1.311-0.491c0.529,0,0.961,0.167,1.287,0.491C151.426,40.81,151.602,41.218,151.627,41.734z"/>
		<rect x="148.102" y="44.838" fill="#FFFFFF" width="3.416" height="11.162"/>
		<path fill="#FFFFFF" d="M153.546,48.417c0-1.187-0.028-2.381-0.071-3.579h2.951l0.178,1.549h0.072
			c0.711-1.209,1.838-1.798,3.379-1.798c1.279,0,2.26,0.435,2.928,1.292c0.68,0.869,1.019,2.041,1.019,3.501V56h-3.412v-6.172
			c0-1.619-0.58-2.427-1.739-2.427c-0.82,0-1.398,0.435-1.746,1.293c-0.07,0.153-0.109,0.446-0.109,0.87V56h-3.446v-7.583H153.546z"
			/>
	</g>
	<path fill="#FFFFFF" d="M118.997,122c-2.751,0-5.108-0.974-7.065-2.929c-1.959-1.961-2.932-4.314-2.932-7.078
		c0-2.75,0.973-5.104,2.932-7.057c1.957-1.963,4.314-2.937,7.065-2.937c2.755,0,5.11,0.974,7.065,2.937
		c1.957,1.953,2.938,4.307,2.938,7.057c0,2.764-0.98,5.117-2.938,7.078C124.107,121.026,121.752,122,118.997,122z M119.916,111.951
		c-0.162-0.441-0.395-0.938-0.699-1.475c-2.652,0.815-5.568,1.222-8.742,1.222v0.295c0,2.183,0.727,4.078,2.176,5.706
		c0.132-0.216,0.226-0.37,0.283-0.456c0.607-0.896,1.357-1.759,2.236-2.599c0.539-0.504,1.223-0.995,2.045-1.481
		c0.829-0.487,1.623-0.861,2.395-1.116C119.71,111.979,119.812,111.951,119.916,111.951z M118.521,109.179
		c-0.695-1.24-1.582-2.64-2.653-4.212c-0.278-0.409-0.451-0.649-0.522-0.711c-1.16,0.57-2.154,1.369-2.988,2.415
		c-0.832,1.046-1.401,2.222-1.709,3.548C113.285,110.219,115.916,109.874,118.521,109.179z M113.734,118.705l-0.174-0.141
		C113.648,118.649,113.707,118.705,113.734,118.705z M120.477,113.391c-3.129,1.074-5.358,2.827-6.691,5.259l-0.051,0.056
		c1.586,1.214,3.336,1.818,5.264,1.818c1.102,0,2.22-0.232,3.352-0.694c-0.351-2.041-0.961-4.198-1.828-6.484L120.477,113.391z
		 M124.654,105.569c-1.666-1.426-3.553-2.142-5.657-2.142c-0.706,0-1.374,0.087-1.995,0.265c1.139,1.513,2.201,3.161,3.172,4.964
		c2.014-0.771,3.494-1.791,4.432-3.047L124.654,105.569z M121.387,111.174l0.225,0.427c1.595-0.185,3.257-0.146,5,0.14
		c0.506,0.078,0.812,0.148,0.912,0.175c0-2.02-0.635-3.798-1.91-5.354l-0.174,0.219c-0.262,0.33-0.756,0.791-1.481,1.374
		c-0.926,0.715-1.974,1.32-3.131,1.799C121.027,110.364,121.217,110.768,121.387,111.174z M122.133,112.954
		c0.752,2.121,1.301,4.148,1.648,6.096c2.016-1.328,3.232-3.217,3.654-5.705c-0.074-0.042-0.356-0.122-0.851-0.236
		C125.081,112.769,123.594,112.706,122.133,112.954z"/>
	<path fill="#FFFFFF" d="M106.436,114.087c0.146-0.656,0.217-1.328,0.217-2.009c0-2.595-0.928-4.815-2.782-6.66
		c-1.841-1.839-4.084-2.748-6.74-2.748c-0.606,0-1.164,0.056-1.651,0.165c-0.883-0.568-1.871-0.835-2.957-0.835
		c-1.551,0-2.855,0.529-3.916,1.579c-1.07,1.071-1.606,2.354-1.606,3.837c0,1.024,0.261,1.963,0.781,2.791
		c-0.145,0.611-0.216,1.239-0.216,1.871c0,2.619,0.932,4.84,2.801,6.673c1.87,1.837,4.126,2.75,6.763,2.75
		c0.35,0,0.932-0.05,1.74-0.169c0.852,0.455,1.725,0.668,2.611,0.668c1.504,0,2.803-0.527,3.891-1.601
		c1.084-1.073,1.629-2.351,1.629-3.857C107,115.743,106.812,114.92,106.436,114.087z M102.004,116.592
		c-0.41,0.579-1.045,1.063-1.916,1.457c-0.871,0.332-1.873,0.5-3,0.5c-1.365,0-2.508-0.237-3.434-0.712
		c-0.586-0.322-1.096-0.758-1.521-1.316c-0.438-0.559-0.66-1.138-0.66-1.768c0-0.347,0.143-0.645,0.416-0.889
		c0.275-0.241,0.602-0.362,0.98-0.362c0.289,0,0.576,0.096,0.873,0.293c0.242,0.234,0.418,0.513,0.516,0.832
		c0.018,0.013,0.205,0.333,0.568,0.965c0.402,0.545,1.131,0.833,2.17,0.833c0.699,0,1.312-0.151,1.852-0.447
		c0.533-0.292,0.801-0.694,0.801-1.225c0-0.39-0.125-0.683-0.385-0.877c-0.25-0.253-0.58-0.445-1-0.583
		c-1.033-0.254-1.615-0.394-1.742-0.421c-0.983-0.189-1.83-0.443-2.522-0.744c-0.619-0.246-1.179-0.624-1.651-1.171
		c-0.402-0.515-0.611-1.144-0.611-1.869c0-0.807,0.232-1.459,0.699-1.986c0.463-0.526,1.069-0.926,1.823-1.183
		c0.781-0.305,1.707-0.455,2.783-0.455c0.756,0,1.492,0.095,2.224,0.29c0.682,0.236,1.215,0.501,1.604,0.785
		c0.364,0.332,0.664,0.668,0.912,1.004c0.202,0.458,0.305,0.821,0.305,1.076c0,0.363-0.14,0.676-0.414,0.948
		c-0.271,0.257-0.604,0.388-0.978,0.388c-0.305,0-0.577-0.073-0.821-0.24c-0.121-0.128-0.312-0.36-0.565-0.766
		c-0.162-0.349-0.438-0.696-0.83-1.032c-0.351-0.251-0.89-0.374-1.609-0.374c-0.729,0-1.273,0.138-1.652,0.412
		c-0.402,0.256-0.609,0.547-0.609,0.883c0,0.223,0.076,0.403,0.222,0.541c0.362,0.503,1.246,0.853,2.651,1.037
		c0.318,0.072,1.013,0.249,2.084,0.541c0.57,0.185,1.119,0.426,1.656,0.746c0.475,0.326,0.838,0.695,1.086,1.137
		c0.232,0.487,0.351,1.036,0.351,1.652C102.654,115.256,102.432,115.945,102.004,116.592z"/>
	<path fill="#FFFFFF" d="M110.436,40c1.082,0,1.938,0.271,2.571,0.827c0.634,0.552,0.947,1.323,0.947,2.313
		c0,0.505-0.134,0.969-0.396,1.394c-0.269,0.423-0.601,0.672-1.002,0.758l-0.48,0.072c0.762,0,1.324,0.248,1.697,0.727
		c0.401,0.51,0.608,0.998,0.623,1.461v0.733c0,0.625-0.127,1.202-0.383,1.701c-0.253,0.506-0.591,0.876-1.017,1.108
		c-0.709,0.39-1.427,0.614-2.156,0.694H104V40H110.436z M110.238,44.707c0.41,0,0.695-0.111,0.849-0.324
		c0.151-0.228,0.231-0.579,0.231-1.065c0-0.295-0.062-0.552-0.182-0.794c-0.119-0.232-0.287-0.373-0.5-0.409l-0.201-0.033h-3.596
		v2.626L110.238,44.707L110.238,44.707z M111.762,48.138c0-0.488-0.107-0.863-0.324-1.127c-0.226-0.29-0.44-0.436-0.641-0.446
		l-0.361-0.029h-3.595v3.132h3.437C111.266,49.667,111.762,49.161,111.762,48.138z M119.632,42.986c0.869,0,1.63,0.168,2.288,0.503
		c0.661,0.335,1.13,0.771,1.407,1.308c0.508,0.992,0.729,1.913,0.661,2.755l-0.04,0.546h-6.396c0,0.655,0.182,1.154,0.54,1.504
		c0.36,0.343,0.724,0.505,1.099,0.505l0.521,0.036c0.599,0,1.072-0.104,1.42-0.312c0.347-0.196,0.527-0.407,0.542-0.603l0.034-0.331
		h2.16c0,1.003-0.354,1.759-1.062,2.269c-0.705,0.516-1.4,0.792-2.096,0.798L119.632,52c-0.88,0-1.664-0.141-2.358-0.421
		c-0.691-0.285-1.197-0.675-1.515-1.161c-0.592-0.878-0.883-1.692-0.883-2.426v-0.476c0-0.453,0.103-0.974,0.297-1.586
		c0.199-0.619,0.461-1.093,0.779-1.453c0.319-0.358,0.778-0.693,1.38-0.996C118.001,43.152,118.764,42.986,119.632,42.986z
		 M122.111,40.687v1.428h-5.12v-1.428H122.111z M121.593,46.535c0-0.398-0.139-0.786-0.403-1.186
		c-0.117-0.194-0.316-0.348-0.598-0.459c-0.281-0.123-0.576-0.184-0.88-0.184c-0.558,0-1.028,0.151-1.401,0.448
		c-0.369,0.308-0.601,0.617-0.681,0.936l-0.116,0.444L121.593,46.535L121.593,46.535z"/>
	<path id="s24" fill="#FFFFFF" d="M89.066,62.521c1.957-1.744,3.706-4.783,5.729-4.143c3.357,0.865,1.908,7.24,3.818,10.224
		c2.617-1.462,4.312-4.538,3.604-6.132c-0.153-0.457,0.038-1.57-2.11-0.605c-0.551,0.27-0.531-0.723-0.435-0.846
		c1.983-2.182,3.138-3.084,4.497-3.016c1.143,0.184,3.156,1.455,2.785,4.518c-0.764,4.55-7.498,11.707-9.754,11.451
		c-2.576,0.555-3.885-7.521-5.822-11.324L89.6,63.333C88.869,63.447,88.971,62.986,89.066,62.521L89.066,62.521z"/>
	<path fill="#FFFFFF" d="M78.302,38v-8.918H76v-3.208h2.302v-2.742c0-2.158,1.351-4.132,4.479-4.132
		c1.263,0,2.201,0.122,2.201,0.122l-0.073,3.006c0,0-0.956-0.012-2-0.012c-1.121,0-1.302,0.527-1.302,1.415v2.344H85l-0.148,3.208
		h-3.244V38H78.302z"/>
	<path fill="#FFFFFF" d="M113,20.416c-0.396,0.603-0.912,1.13-1.529,1.573v0.388c0,1.394-0.33,2.733-0.979,4.025
		c-0.655,1.298-1.669,2.384-3.038,3.266c-1.38,0.89-2.955,1.331-4.717,1.331c-1.733,0-3.305-0.451-4.736-1.348
		c0.197,0.024,0.443,0.032,0.748,0.032c1.43,0,2.702-0.432,3.816-1.282c-0.688-0.023-1.303-0.236-1.82-0.631
		c-0.514-0.398-0.861-0.895-1.047-1.495c0.104,0.043,0.287,0.057,0.559,0.057c0.279,0,0.555-0.024,0.809-0.088
		c-0.68-0.149-1.26-0.489-1.73-1.043c-0.479-0.55-0.714-1.202-0.714-1.954v-0.034c0.397,0.216,0.853,0.348,1.366,0.386
		c-0.905-0.622-1.366-1.468-1.366-2.542c0-0.504,0.144-1.006,0.43-1.512c1.688,2.031,3.798,3.08,6.354,3.154
		c-0.063-0.191-0.092-0.418-0.092-0.679c0-0.833,0.295-1.546,0.897-2.139c0.604-0.588,1.34-0.883,2.192-0.883
		c0.891,0,1.627,0.309,2.217,0.933c0.632-0.131,1.281-0.368,1.951-0.71c-0.205,0.71-0.647,1.271-1.331,1.679
		C111.837,20.811,112.432,20.652,113,20.416z"/>
	<g>
		<path fill="#FFFFFF" d="M5.275,155.225h1.437l-1.067,3.314c-0.02,0.027-0.096,0.262-0.246,0.695
			c-0.158,0.432-0.249,0.763-0.312,0.98v3.582H3.711v-3.418c0-0.124-0.22-0.699-0.598-1.708L2,155.225h1.424l0.898,3.441h0.11
			L5.275,155.225z"/>
		<path fill="#FFFFFF" d="M9.743,157.754c-0.335-0.298-0.755-0.443-1.256-0.443c-0.542,0-0.971,0.14-1.322,0.418
			c-0.357,0.279-0.522,0.672-0.522,1.199v3.233c0,0.537,0.151,0.96,0.487,1.287c0.33,0.313,0.759,0.472,1.298,0.472
			c0.561,0,1.004-0.148,1.33-0.447c0.32-0.309,0.488-0.746,0.488-1.285v-3.239C10.246,158.434,10.074,158.04,9.743,157.754z
			 M8.932,162.298c0,0.341-0.154,0.515-0.508,0.515c-0.343,0-0.479-0.174-0.479-0.515v-3.442c0-0.133,0.039-0.244,0.14-0.332
			c0.099-0.092,0.21-0.142,0.343-0.142c0.133,0,0.234,0.05,0.35,0.157c0.11,0.094,0.154,0.201,0.154,0.316V162.298z"/>
		<path fill="#FFFFFF" d="M29.403,158.805v3.32c0,0.331-0.15,0.504-0.436,0.504c-0.232,0-0.427-0.088-0.613-0.254v-3.958
			c0.126-0.169,0.34-0.244,0.531-0.244C29.231,158.173,29.403,158.382,29.403,158.805z"/>
		<path fill="#FFFFFF" d="M14.359,163.798h-1.176v-0.743c-0.523,0.524-1.004,0.787-1.464,0.787c-0.595,0-0.896-0.378-0.896-1.123
			v-5.271h1.246v4.851c0,0.278,0.124,0.422,0.35,0.422c0.225,0,0.43-0.164,0.764-0.492v-4.779h1.176V163.798L14.359,163.798z"/>
		<path fill="#FFFFFF" d="M33.983,159.609h-1.046v-0.719c0-0.463,0.161-0.693,0.536-0.693c0.354,0,0.51,0.23,0.51,0.693V159.609z"/>
		<path fill="#FFFFFF" d="M36.865,155.906c-0.069-0.816-0.38-1.475-0.929-1.979c-0.544-0.505-1.233-0.774-2.051-0.786
			c-1.742-0.099-4.128-0.142-7.174-0.142c-3.047,0-5.431,0.043-7.178,0.142c-0.818,0.012-1.509,0.281-2.067,0.786
			c-0.559,0.505-0.853,1.162-0.913,1.979c-0.09,1.587-0.135,2.781-0.135,3.593c0,0.813,0.045,2.019,0.135,3.619
			c0.061,0.796,0.354,1.446,0.913,1.955c0.559,0.502,1.249,0.78,2.067,0.815c1.747,0.073,4.131,0.11,7.178,0.11
			c3.012,0,5.395-0.037,7.174-0.11c0.817-0.035,1.507-0.313,2.051-0.815c0.549-0.509,0.859-1.159,0.929-1.955
			c0.087-1.601,0.135-2.806,0.135-3.619C37,158.688,36.952,157.493,36.865,155.906z M20.878,163.593h-1.44v-7.353h-1.446v-1.221
			h4.331v1.221h-1.444L20.878,163.593L20.878,163.593z M25.862,163.593h-1.253v-0.715c-0.454,0.507-0.955,0.767-1.424,0.767
			c-0.592,0-0.863-0.353-0.863-1.076v-5.315h1.24v4.845c0,0.278,0.103,0.42,0.312,0.42c0.238,0,0.483-0.158,0.734-0.474v-4.791
			h1.253L25.862,163.593L25.862,163.593z M30.641,162.236c0,0.928-0.362,1.383-1.12,1.383c-0.41,0-0.777-0.18-1.166-0.549v0.521
			h-1.253v-8.572h1.253v2.735c0.318-0.379,0.705-0.588,1.119-0.588c0.776,0,1.167,0.526,1.167,1.582V162.236L30.641,162.236z
			 M35.295,160.555h-2.357v1.184c0,0.596,0.171,0.892,0.528,0.892c0.083,0,0.162-0.019,0.235-0.043
			c0.074-0.03,0.122-0.069,0.156-0.13c0.036-0.055,0.07-0.104,0.1-0.146c0.017-0.047,0.02-0.121,0.03-0.226
			c0.01-0.101-0.004-0.178-0.004-0.233v-0.271v-0.276h1.312v0.463c0,1.313-0.631,1.969-1.857,1.969
			c-0.573,0-1.021-0.185-1.334-0.538c-0.312-0.363-0.484-0.839-0.484-1.431v-2.818c0-0.537,0.181-0.982,0.545-1.326
			c0.357-0.35,0.818-0.523,1.372-0.523c0.551,0,0.988,0.162,1.302,0.488c0.292,0.335,0.457,0.789,0.457,1.361L35.295,160.555
			L35.295,160.555z"/>
	</g>
	<g>
		<path fill="#FFFFFF" d="M36.723,3.304c0,0.382-0.144,0.69-0.41,0.938c-0.271,0.244-0.593,0.366-0.988,0.366
			c-0.373,0-0.682-0.122-0.944-0.376C34.121,3.984,34,3.672,34,3.304c0-0.388,0.121-0.694,0.369-0.934
			C34.625,2.125,34.951,2,35.361,2c0.393,0,0.717,0.125,0.967,0.37C36.566,2.61,36.693,2.916,36.723,3.304z"/>
		<rect x="34.072" y="5.629" fill="#FFFFFF" width="2.562" height="8.371"/>
		<path fill="#FFFFFF" d="M38.156,8.315c0-0.89-0.022-1.786-0.052-2.686h2.211l0.133,1.162h0.06
			c0.531-0.908,1.373-1.348,2.531-1.348c0.958,0,1.701,0.325,2.203,0.967C45.75,7.064,46,7.94,46,9.037V14h-2.558V9.37
			c0-1.215-0.438-1.816-1.312-1.816c-0.607,0-1.042,0.325-1.305,0.964c-0.057,0.117-0.088,0.337-0.088,0.654V14h-2.582V8.315H38.156
			z"/>
	</g>
	<path fill="#FFFFFF" d="M3.537,16V9.429H2V7.067h1.537V5.048C3.537,3.458,4.439,2,6.523,2c0.836,0,1.462,0.09,1.462,0.09
		L7.938,4.305c0,0-0.637-0.005-1.329-0.005c-0.756,0-0.875,0.387-0.875,1.038v1.729H8L7.902,9.429H5.733V16H3.537z"/>
	<g>
		<path fill="#FFFFFF" d="M9.501,40C5.357,40,2,43.357,2,47.5c0,3.071,1.846,5.708,4.488,6.87c-0.02-0.524-0.003-1.152,0.131-1.722
			c0.144-0.609,0.964-4.087,0.964-4.087s-0.238-0.478-0.238-1.187c0-1.111,0.645-1.941,1.448-1.941c0.68,0,1.012,0.513,1.012,1.125
			c0,0.686-0.438,1.712-0.662,2.663c-0.188,0.794,0.398,1.444,1.182,1.444c1.421,0,2.38-1.825,2.38-3.987
			c0-1.645-1.109-2.875-3.12-2.875c-2.277,0-3.693,1.697-3.693,3.594c0,0.652,0.192,1.113,0.493,1.471
			c0.14,0.163,0.158,0.229,0.109,0.417c-0.036,0.136-0.122,0.469-0.154,0.601c-0.049,0.19-0.204,0.258-0.374,0.188
			c-1.05-0.427-1.536-1.576-1.536-2.866c0-2.13,1.794-4.685,5.36-4.685c2.861,0,4.747,2.072,4.747,4.296
			c0,2.943-1.636,5.141-4.045,5.141c-0.812,0-1.574-0.438-1.836-0.935c0,0-0.433,1.728-0.527,2.062
			c-0.156,0.578-0.47,1.157-0.754,1.606C8.05,54.891,8.763,55,9.501,55C13.643,55,17,51.643,17,47.5S13.643,40,9.501,40z"/>
	</g>
	<path d="M21.293,82.404C22.428,83.437,23,84.695,23,86.181c0,1.484-0.572,2.757-1.707,3.827L12.504,98l-8.792-7.992
		C2.575,88.938,2,87.665,2,86.181c0-1.486,0.575-2.745,1.712-3.777C4.704,81.465,5.932,81,7.396,81c1.452,0,2.696,0.465,3.736,1.404
		l1.372,1.255l1.415-1.255C14.911,81.465,16.131,81,17.578,81C19.009,81,20.247,81.465,21.293,82.404z"/>
	<g>
		<path d="M79.58,43.184C79.858,43.03,80,43.098,80,43.39v7.615c0,0.221-0.119,0.442-0.361,0.662C79.403,51.89,79.17,52,78.946,52
			H62.055c-0.227,0-0.46-0.11-0.699-0.333C61.115,51.446,61,51.226,61,51.004v-7.615c0-0.292,0.137-0.36,0.421-0.206l8.106,4.136
			c0.24,0.142,0.565,0.21,0.975,0.21c0.404,0,0.729-0.069,0.97-0.21L79.58,43.184z"/>
		<path d="M61.038,40.285c0.028-0.19,0.218-0.285,0.55-0.285H79.45c0.537,0,0.677,0.217,0.421,0.668
			c-0.107,0.2-0.275,0.352-0.507,0.449c-0.108,0.049-0.792,0.408-2.045,1.053l-3.803,2.009c-1.309,0.693-1.993,1.047-2.043,1.075
			c-0.227,0.138-0.552,0.207-0.97,0.207c-0.41,0-0.735-0.069-0.975-0.207c-0.056-0.028-0.74-0.382-2.049-1.075l-3.802-2.009
			c-1.254-0.645-1.933-1.003-2.045-1.053C61.179,40.868,60.981,40.591,61.038,40.285z"/>
	</g>
	<g>
		<path d="M24.198,20.171c0.804-0.78,1.785-1.172,2.94-1.172c1.152,0,2.128,0.392,2.933,1.172c0.8,0.779,1.204,1.724,1.204,2.83
			c0,1.105-0.408,2.048-1.228,2.82C29.217,26.608,28.248,27,27.138,27c-1.118,0-2.086-0.392-2.913-1.178
			C23.404,25.049,23,24.107,23,23.001S23.397,20.951,24.198,20.171z"/>
		<path d="M37.862,27c-1.115,0-2.084-0.392-2.912-1.178c-0.819-0.772-1.224-1.715-1.224-2.82c0-1.106,0.398-2.051,1.198-2.83
			C35.734,19.391,36.71,19,37.862,19c1.154,0,2.131,0.392,2.936,1.172C41.603,20.951,42,21.895,42,23.001
			c0,1.105-0.404,2.048-1.224,2.82C39.948,26.608,38.974,27,37.862,27z"/>
	</g>
	<path d="M92,83.009c-0.561,0.851-1.272,1.597-2.143,2.231v0.549c0,1.974-0.457,3.873-1.369,5.701
		c-0.914,1.835-2.327,3.373-4.245,4.623C82.309,97.372,80.104,98,77.619,98c-2.416,0-4.629-0.64-6.619-1.91
		c0.275,0.031,0.627,0.047,1.053,0.047c1.989,0,3.771-0.61,5.339-1.819c-0.974-0.031-1.824-0.329-2.543-0.893
		c-0.727-0.562-1.216-1.264-1.472-2.117c0.131,0.063,0.392,0.083,0.773,0.083c0.397,0,0.776-0.037,1.143-0.13
		c-0.959-0.205-1.773-0.69-2.431-1.474c-0.666-0.78-0.991-1.704-0.991-2.767v-0.049c0.543,0.306,1.184,0.489,1.913,0.548
		c-1.277-0.882-1.913-2.082-1.913-3.601c0-0.715,0.192-1.429,0.589-2.14c2.357,2.871,5.324,4.357,8.903,4.465
		c-0.092-0.271-0.139-0.592-0.139-0.958c0-1.185,0.424-2.193,1.272-3.033C83.337,81.421,84.36,81,85.567,81
		c1.247,0,2.279,0.442,3.1,1.322c0.886-0.182,1.803-0.518,2.744-1.002c-0.289,1.002-0.917,1.798-1.872,2.375
		C90.376,83.566,91.195,83.344,92,83.009z"/>
	<g>
		<path d="M171.812,81.105V81h-4.883c-1.068,0-2.14,0.377-3.201,1.104c-0.479,0.33-0.875,0.825-1.22,1.481
			c-0.334,0.664-0.5,1.357-0.5,2.127c0,1.679,0.525,2.817,1.576,3.455c0.662,0.414,1.438,0.654,2.332,0.654h0.291l-0.033,0.293
			c0,0.588,0.22,1.219,0.681,1.883H166.8c-0.987,0-2.098,0.206-3.364,0.579c-0.72,0.25-1.312,0.643-1.752,1.254
			c-0.461,0.568-0.685,1.295-0.685,2.151c0,0.873,0.183,1.613,0.594,2.213c0.398,0.593,0.921,1.026,1.584,1.249
			c1.033,0.375,1.931,0.557,2.74,0.557c0.019,0,0.056-0.039,0.076-0.039l0.09,0.021h0.092c1.173,0,2.222-0.244,3.173-0.723
			c1.635-0.779,2.457-2.165,2.457-4.17c0-1.26-0.738-2.547-2.203-3.849c-0.709-0.664-1.062-1.15-1.062-1.391
			c0-0.221,0.273-0.609,0.809-1.161c0.951-0.797,1.455-1.941,1.455-3.39c0-0.92-0.121-1.625-0.316-2.131
			c-0.211-0.487-0.59-0.87-1.139-1.165c0.158-0.082,0.424-0.119,0.812-0.119C171.256,81.645,171.812,81.418,171.812,81.105z
			 M168.926,93.646c0.568,0.447,0.875,1.068,0.934,1.821c0.06,0.74-0.207,1.385-0.784,1.896c-0.543,0.496-1.271,0.781-2.197,0.852
			c-0.928,0.107-1.771-0.057-2.532-0.465c-0.759-0.42-1.177-0.994-1.23-1.77c-0.053-0.796,0.277-1.479,0.986-2.067
			c0.723-0.578,1.491-0.92,2.317-0.92h0.342C167.641,92.994,168.359,93.207,168.926,93.646z M168.52,87.088
			c-0.301,0.789-0.744,1.252-1.336,1.436c-0.113,0.051-0.235,0.051-0.383,0.051c-0.533,0-1.037-0.27-1.5-0.727
			c-0.453-0.443-0.781-1.033-0.971-1.764c-0.201-0.726-0.193-1.513,0.014-2.353c0.258-0.719,0.666-1.171,1.232-1.333
			c0.139-0.031,0.285-0.049,0.418-0.049c1.305,0,2.16,0.776,2.588,2.327C168.836,85.519,168.82,86.309,168.52,87.088z"/>
		<polygon points="176.791,88.457 180,88.457 180,90.454 176.791,90.454 176.791,93.725 174.824,93.725 174.824,90.454 
			171.617,90.454 171.617,88.457 174.824,88.457 174.824,85.188 176.791,85.188 		"/>
	</g>
	<g>
		<path d="M122,130c-5.523,0-10,4.479-10,10c0,4.096,2.463,7.611,5.986,9.159c-0.029-0.698-0.006-1.536,0.174-2.296
			c0.191-0.812,1.287-5.449,1.287-5.449s-0.32-0.639-0.32-1.582c0-1.48,0.859-2.589,1.928-2.589c0.91,0,1.35,0.683,1.35,1.501
			c0,0.914-0.581,2.283-0.883,3.55c-0.25,1.06,0.531,1.926,1.578,1.926c1.896,0,3.172-2.434,3.172-5.317
			c0-2.19-1.477-3.832-4.162-3.832c-3.032,0-4.924,2.263-4.924,4.791c0,0.869,0.258,1.484,0.66,1.961
			c0.187,0.219,0.211,0.306,0.146,0.557c-0.05,0.184-0.158,0.627-0.205,0.803c-0.065,0.254-0.271,0.344-0.5,0.252
			c-1.397-0.57-2.05-2.103-2.05-3.822c0-2.84,2.396-6.245,7.148-6.245c3.816,0,6.33,2.762,6.33,5.728
			c0,3.924-2.182,6.854-5.396,6.854c-1.077,0-2.094-0.583-2.44-1.246c0,0-0.582,2.304-0.705,2.749
			c-0.211,0.771-0.627,1.542-1.006,2.143c0.897,0.266,1.851,0.41,2.834,0.41c5.521,0,10-4.479,10-10.001
			C132,134.479,127.521,130,122,130z"/>
	</g>
	<path d="M166.843,177.762c-0.083,0.896-0.438,1.625-1.079,2.188c-0.641,0.583-1.438,0.884-2.397,0.928
		C161.3,180.95,158.51,181,154.999,181c-3.55,0-6.34-0.05-8.362-0.124c-0.966-0.044-1.768-0.345-2.416-0.928
		c-0.65-0.562-1.002-1.292-1.066-2.188c-0.102-1.805-0.153-3.166-0.153-4.074c0-0.918,0.054-2.269,0.153-4.045
		c0.064-0.912,0.416-1.654,1.066-2.226c0.648-0.573,1.45-0.867,2.416-0.89c2.022-0.104,4.812-0.156,8.362-0.156
		s6.337,0.054,8.366,0.156c0.96,0.021,1.758,0.315,2.398,0.89c0.639,0.571,0.995,1.312,1.078,2.226
		c0.104,1.776,0.157,3.127,0.157,4.045C167,174.596,166.947,175.956,166.843,177.762z M149.891,170.049v-1.406h-5.045v1.406h1.695
		v8.21h1.626v-8.21H149.891z M149.77,153h2.063l-1.535,4.6c-0.021,0.041-0.14,0.365-0.356,0.969
		c-0.225,0.603-0.371,1.054-0.457,1.365v4.948h-2.002v-4.728c-0.024-0.168-0.305-0.956-0.846-2.369L145.039,153h2.066l1.285,4.725
		h0.152L149.77,153z M153.998,178.259v-7.086h-1.413v5.378c-0.31,0.348-0.604,0.524-0.876,0.524c-0.249,0-0.377-0.154-0.377-0.466
		v-5.438h-1.469v5.965c0,0.809,0.34,1.219,1.031,1.219c0.545,0,1.104-0.295,1.689-0.871v0.773L153.998,178.259L153.998,178.259z
		 M154.434,155.887c0.732,0,1.34,0.215,1.82,0.605c0.482,0.404,0.723,0.961,0.723,1.668v4.517c0,0.759-0.234,1.354-0.705,1.79
		c-0.473,0.415-1.114,0.631-1.932,0.631c-0.77,0-1.395-0.226-1.877-0.67c-0.482-0.439-0.725-1.046-0.725-1.781v-4.518
		c0-0.729,0.255-1.283,0.77-1.666C153.025,156.077,153.661,155.887,154.434,155.887z M154.875,157.585
		c-0.166-0.138-0.35-0.207-0.535-0.207s-0.354,0.069-0.499,0.188c-0.146,0.125-0.22,0.279-0.22,0.468v4.797
		c0,0.479,0.236,0.709,0.719,0.709c0.523,0,0.789-0.229,0.789-0.709v-4.797C155.129,157.868,155.044,157.718,154.875,157.585z
		 M159.605,172.85c0-1.183-0.463-1.785-1.383-1.785c-0.478,0-0.916,0.221-1.311,0.656v-3.078h-1.477v9.616h1.477v-0.56
		c0.436,0.415,0.896,0.623,1.377,0.623c0.879,0,1.316-0.528,1.316-1.561V172.85L159.605,172.85z M158.133,172.9v3.742
		c0,0.375-0.168,0.557-0.501,0.557c-0.272,0-0.513-0.092-0.719-0.278v-4.442c0.185-0.195,0.396-0.283,0.624-0.283
		C157.936,172.195,158.133,172.427,158.133,172.9z M163.65,164.882h-1.785v-1.002c-0.733,0.737-1.434,1.101-2.1,1.101
		c-0.863,0-1.291-0.52-1.291-1.565v-7.301h1.818v6.718c0,0.385,0.163,0.583,0.486,0.583c0.324,0,0.685-0.226,1.084-0.687v-6.614
		h1.785v8.768H163.65z M160.734,176.236c0,0.662,0.178,1.197,0.551,1.604c0.361,0.405,0.879,0.604,1.549,0.604
		c1.439,0,2.162-0.731,2.162-2.207v-0.528h-1.477v0.31v0.313c0,0.062-0.006,0.151-0.017,0.265c-0.006,0.114-0.026,0.199-0.062,0.252
		c-0.027,0.051-0.064,0.105-0.105,0.172c-0.043,0.058-0.104,0.105-0.188,0.135c-0.084,0.031-0.18,0.047-0.282,0.047
		c-0.418,0-0.63-0.332-0.63-0.994v-1.34h2.761v-1.807c0-0.646-0.181-1.152-0.535-1.517c-0.356-0.37-0.856-0.56-1.501-0.56
		c-0.648,0-1.179,0.195-1.598,0.58c-0.42,0.403-0.629,0.896-0.629,1.494V176.236L160.734,176.236z M163.521,173.773h-1.285v-0.769
		c0-0.519,0.222-0.787,0.66-0.787c0.42,0,0.625,0.269,0.625,0.787V173.773z"/>
	<g>
		<path d="M6.491,213.904h1.965l-1.459,4.342c-0.02,0.039-0.13,0.352-0.337,0.904c-0.206,0.565-0.34,0.998-0.429,1.291v4.679H4.347
			v-4.474c0-0.156-0.303-0.904-0.819-2.224L2,213.904h1.963l1.219,4.512H5.33L6.491,213.904z"/>
		<path d="M12.617,217.218c-0.452-0.393-1.024-0.579-1.719-0.579c-0.739,0-1.333,0.18-1.819,0.543
			c-0.484,0.367-0.714,0.887-0.714,1.576v4.221c0,0.701,0.212,1.266,0.669,1.686c0.458,0.42,1.045,0.619,1.781,0.619
			c0.775,0,1.375-0.193,1.826-0.59c0.448-0.4,0.664-0.965,0.664-1.682v-4.229C13.304,218.117,13.079,217.598,12.617,217.218z
			 M11.512,223.157c0,0.44-0.214,0.67-0.708,0.67c-0.455,0-0.647-0.229-0.647-0.67v-4.499c0-0.18,0.051-0.324,0.196-0.436
			c0.134-0.113,0.284-0.187,0.465-0.187c0.179,0,0.315,0.073,0.476,0.202c0.157,0.121,0.218,0.263,0.218,0.419V223.157z"/>
		<path d="M39.58,218.6v4.336c0,0.43-0.204,0.66-0.591,0.66c-0.323,0-0.582-0.117-0.851-0.328v-5.174
			c0.181-0.229,0.469-0.324,0.739-0.324C39.338,217.77,39.58,218.037,39.58,218.6z"/>
		<path d="M18.957,225.12h-1.625v-0.972c-0.716,0.685-1.363,1.025-2,1.025c-0.816,0-1.23-0.49-1.23-1.465v-6.895h1.709v6.342
			c0,0.367,0.172,0.553,0.481,0.553c0.306,0,0.594-0.215,1.04-0.633v-6.262h1.625V225.12z"/>
		<path d="M45.865,219.645h-1.438V218.7c0-0.595,0.224-0.902,0.737-0.902c0.491,0,0.702,0.31,0.702,0.902L45.865,219.645
			L45.865,219.645z"/>
		<path d="M49.812,214.798c-0.098-1.065-0.522-1.929-1.27-2.585c-0.752-0.66-1.684-1.012-2.819-1.031
			C43.344,211.055,40.065,211,35.89,211c-4.175,0-7.456,0.055-9.835,0.182c-1.13,0.021-2.078,0.371-2.841,1.031
			c-0.764,0.656-1.177,1.52-1.251,2.585c-0.123,2.076-0.181,3.646-0.181,4.7c0,1.066,0.058,2.639,0.181,4.74
			c0.074,1.031,0.487,1.881,1.251,2.547c0.763,0.662,1.71,1.023,2.841,1.07c2.379,0.096,5.66,0.145,9.835,0.145
			c4.125,0,7.406-0.049,9.833-0.145c1.135-0.047,2.067-0.408,2.819-1.07c0.748-0.666,1.172-1.516,1.27-2.547
			c0.123-2.104,0.188-3.674,0.188-4.74C50,218.443,49.935,216.874,49.812,214.798z M27.895,224.854H25.92v-9.621h-1.981v-1.584
			h5.932v1.584h-1.976V224.854z M34.721,224.854h-1.702v-0.929c-0.631,0.664-1.319,1.002-1.96,1.002
			c-0.815,0-1.188-0.469-1.188-1.415v-6.953h1.705v6.348c0,0.361,0.135,0.537,0.426,0.537c0.32,0,0.656-0.195,1.017-0.615v-6.27
			h1.702V224.854z M41.284,223.085c0,1.203-0.508,1.808-1.537,1.808c-0.567,0-1.071-0.24-1.609-0.728v0.688h-1.704v-11.205h1.704
			v3.572c0.448-0.498,0.97-0.763,1.535-0.763c1.077,0,1.611,0.685,1.611,2.062V223.085z M47.663,220.881h-3.236v1.553
			c0,0.768,0.234,1.162,0.721,1.162c0.127,0,0.229-0.015,0.327-0.062c0.1-0.037,0.169-0.09,0.216-0.168
			c0.049-0.07,0.094-0.129,0.13-0.193c0.036-0.061,0.037-0.156,0.048-0.281c0.013-0.135-0.004-0.246-0.004-0.311v-0.361v-0.363
			h1.798v0.607c0,1.719-0.861,2.574-2.55,2.574c-0.788,0-1.4-0.236-1.83-0.705c-0.431-0.471-0.653-1.084-0.653-1.869v-3.681
			c0-0.699,0.246-1.291,0.741-1.735c0.487-0.463,1.114-0.689,1.874-0.689c0.763,0,1.366,0.218,1.786,0.644
			c0.412,0.446,0.633,1.024,0.633,1.782L47.663,220.881L47.663,220.881z"/>
	</g>
	<path d="M126,35.977c-1.27,0.679-2.637,1.022-4.085,1.022c-0.774,0-1.491-0.096-2.162-0.316c-0.67-0.246-1.208-0.55-1.608-0.903
		c-0.459-0.385-0.763-0.803-0.906-1.249c-0.184-0.402-0.277-1.031-0.277-1.878V26.35H115v-2.535c1.4-0.479,2.407-1.327,3.021-2.546
		c0.318-0.694,0.508-1.446,0.59-2.27h2.556v4.534h4.24v2.816h-4.24v4.622c0,1.085,0.054,1.753,0.157,1.993
		c0.142,0.323,0.354,0.562,0.628,0.706c0.379,0.262,0.821,0.391,1.334,0.391c0.891,0,1.799-0.295,2.714-0.901V35.977z"/>
	<g>
		<path d="M23.629,59.734c0,0.509-0.18,0.924-0.536,1.252c-0.352,0.323-0.792,0.486-1.314,0.486c-0.499,0-0.917-0.163-1.262-0.497
			C20.173,60.645,20,60.229,20,59.734c0-0.517,0.169-0.925,0.508-1.243C20.847,58.167,21.28,58,21.816,58
			c0.528,0,0.96,0.167,1.286,0.491C23.431,58.81,23.605,59.218,23.629,59.734z"/>
		<rect x="20.112" y="62.838" width="3.409" height="11.162"/>
		<path d="M25.551,66.417c0-1.187-0.026-2.381-0.077-3.579h2.954l0.173,1.549h0.075c0.715-1.209,1.835-1.798,3.375-1.798
			c1.283,0,2.259,0.435,2.937,1.292C35.665,64.75,36,65.922,36,67.382V74h-3.414v-6.172c0-1.619-0.577-2.427-1.744-2.427
			c-0.814,0-1.397,0.435-1.742,1.293c-0.072,0.153-0.103,0.446-0.103,0.87V74H25.55L25.551,66.417L25.551,66.417z"/>
	</g>
	<path d="M141.005,122c-2.756,0-5.108-0.974-7.065-2.929c-1.959-1.961-2.938-4.314-2.938-7.078c0-2.75,0.979-5.104,2.938-7.057
		c1.957-1.963,4.311-2.937,7.065-2.937c2.745,0,5.103,0.974,7.06,2.937c1.959,1.953,2.937,4.307,2.937,7.057
		c0,2.764-0.978,5.117-2.937,7.078C146.107,121.026,143.75,122,141.005,122z M141.915,111.951c-0.16-0.441-0.392-0.938-0.696-1.475
		c-2.654,0.815-5.564,1.222-8.734,1.222v0.295c0,2.183,0.721,4.078,2.17,5.706c0.13-0.216,0.226-0.37,0.281-0.456
		c0.61-0.896,1.354-1.759,2.242-2.599c0.531-0.504,1.211-0.995,2.045-1.481c0.823-0.487,1.623-0.861,2.387-1.116
		C141.707,111.979,141.812,111.951,141.915,111.951z M140.52,109.179c-0.69-1.24-1.574-2.64-2.647-4.212
		c-0.272-0.409-0.445-0.649-0.519-0.711c-1.164,0.57-2.156,1.369-2.99,2.415c-0.836,1.046-1.405,2.222-1.706,3.548
		C135.293,110.219,137.914,109.874,140.52,109.179z M135.744,118.705l-0.176-0.141C135.654,118.649,135.715,118.705,135.744,118.705
		z M142.477,113.391c-3.129,1.074-5.363,2.827-6.692,5.259l-0.039,0.056c1.575,1.214,3.328,1.818,5.261,1.818
		c1.1,0,2.215-0.232,3.342-0.694c-0.347-2.041-0.953-4.198-1.824-6.484L142.477,113.391z M146.648,105.569
		c-1.662-1.426-3.547-2.142-5.645-2.142c-0.712,0-1.382,0.087-2.004,0.265c1.146,1.513,2.202,3.161,3.175,4.964
		c2.013-0.771,3.492-1.791,4.435-3.047L146.648,105.569z M143.395,111.174l0.217,0.427c1.59-0.185,3.263-0.146,4.994,0.14
		c0.511,0.078,0.815,0.148,0.916,0.175c0-2.02-0.641-3.798-1.914-5.354l-0.174,0.219c-0.26,0.33-0.752,0.791-1.476,1.374
		c-0.933,0.715-1.97,1.32-3.13,1.799C143.029,110.364,143.219,110.768,143.395,111.174z M144.129,112.954
		c0.756,2.121,1.309,4.148,1.654,6.096c2.014-1.328,3.232-3.217,3.652-5.705c-0.074-0.042-0.354-0.122-0.849-0.236
		C147.076,112.769,145.598,112.706,144.129,112.954z"/>
	<path d="M87.438,142.087c0.14-0.655,0.212-1.328,0.212-2.009c0-2.596-0.924-4.814-2.779-6.66c-1.837-1.839-4.09-2.748-6.74-2.748
		c-0.609,0-1.156,0.057-1.646,0.165c-0.886-0.567-1.871-0.835-2.959-0.835c-1.553,0-2.855,0.529-3.916,1.579
		c-1.071,1.071-1.61,2.354-1.61,3.837c0,1.023,0.262,1.963,0.786,2.791c-0.146,0.611-0.218,1.238-0.218,1.871
		c0,2.619,0.937,4.84,2.807,6.673c1.867,1.837,4.12,2.75,6.755,2.75c0.351,0,0.926-0.05,1.741-0.169
		c0.858,0.455,1.727,0.668,2.604,0.668c1.508,0,2.808-0.527,3.895-1.602c1.089-1.072,1.63-2.351,1.63-3.856
		C88,143.743,87.812,142.92,87.438,142.087z M82.999,144.592c-0.4,0.579-1.042,1.062-1.912,1.457c-0.869,0.332-1.871,0.5-3,0.5
		c-1.362,0-2.506-0.236-3.435-0.712c-0.578-0.321-1.085-0.758-1.521-1.315c-0.435-0.56-0.648-1.139-0.648-1.769
		c0-0.347,0.135-0.646,0.415-0.89c0.272-0.24,0.597-0.361,0.976-0.361c0.29,0,0.578,0.096,0.867,0.293
		c0.247,0.234,0.42,0.514,0.523,0.832c0.013,0.014,0.202,0.333,0.562,0.965c0.407,0.545,1.132,0.833,2.18,0.833
		c0.693,0,1.306-0.151,1.842-0.446c0.54-0.293,0.807-0.694,0.807-1.226c0-0.39-0.13-0.683-0.393-0.877
		c-0.246-0.253-0.58-0.444-0.997-0.583c-1.033-0.254-1.608-0.395-1.744-0.421c-0.984-0.188-1.82-0.443-2.519-0.744
		c-0.626-0.246-1.17-0.624-1.652-1.171c-0.407-0.516-0.605-1.145-0.605-1.869c0-0.807,0.232-1.459,0.691-1.986
		c0.468-0.525,1.077-0.926,1.828-1.183c0.785-0.306,1.71-0.455,2.78-0.455c0.75,0,1.497,0.095,2.218,0.29
		c0.679,0.236,1.217,0.501,1.609,0.785c0.364,0.332,0.664,0.668,0.913,1.004c0.202,0.458,0.304,0.82,0.304,1.076
		c0,0.363-0.133,0.676-0.41,0.947c-0.282,0.258-0.602,0.389-0.98,0.389c-0.306,0-0.583-0.073-0.826-0.24
		c-0.122-0.128-0.304-0.359-0.565-0.766c-0.162-0.35-0.436-0.696-0.829-1.032c-0.348-0.251-0.881-0.374-1.607-0.374
		c-0.723,0-1.274,0.139-1.647,0.412c-0.411,0.256-0.611,0.547-0.611,0.883c0,0.223,0.072,0.403,0.213,0.541
		c0.363,0.503,1.249,0.854,2.655,1.037c0.313,0.072,1.012,0.249,2.087,0.541c0.561,0.186,1.11,0.426,1.647,0.746
		c0.481,0.326,0.843,0.695,1.088,1.137c0.234,0.487,0.347,1.036,0.347,1.652C83.65,143.256,83.436,143.945,82.999,144.592z"/>
	<path d="M88.438,40c1.077,0,1.931,0.271,2.562,0.827c0.641,0.552,0.953,1.323,0.953,2.313c0,0.505-0.13,0.969-0.396,1.394
		c-0.269,0.423-0.603,0.672-1.003,0.758l-0.479,0.072c0.761,0,1.328,0.248,1.699,0.727c0.404,0.51,0.607,0.998,0.619,1.461v0.733
		c0,0.625-0.127,1.202-0.377,1.701c-0.257,0.506-0.598,0.876-1.021,1.108c-0.707,0.39-1.431,0.614-2.16,0.694H82V40H88.438z
		 M88.235,44.707c0.41,0,0.693-0.111,0.848-0.324c0.154-0.228,0.229-0.579,0.229-1.065c0-0.295-0.057-0.552-0.178-0.794
		c-0.12-0.232-0.288-0.373-0.502-0.409l-0.194-0.033h-3.601v2.626L88.235,44.707L88.235,44.707z M89.75,48.138
		c0-0.488-0.106-0.863-0.315-1.127c-0.229-0.29-0.441-0.436-0.641-0.446l-0.356-0.029h-3.601v3.132h3.439
		C89.26,49.667,89.75,49.161,89.75,48.138z M97.626,42.986c0.869,0,1.636,0.168,2.291,0.503c0.661,0.335,1.134,0.771,1.415,1.308
		c0.507,0.992,0.723,1.913,0.656,2.755l-0.043,0.546H95.55c0,0.655,0.181,1.154,0.537,1.504c0.361,0.343,0.729,0.505,1.103,0.505
		l0.518,0.036c0.602,0,1.076-0.104,1.425-0.312c0.345-0.196,0.522-0.407,0.536-0.603l0.045-0.331h2.156
		c0,1.003-0.354,1.759-1.059,2.269c-0.709,0.516-1.41,0.792-2.103,0.798L97.626,52c-0.873,0-1.661-0.141-2.354-0.421
		c-0.695-0.285-1.197-0.675-1.521-1.161c-0.583-0.878-0.881-1.692-0.881-2.426v-0.476c0-0.453,0.102-0.974,0.306-1.586
		c0.197-0.619,0.456-1.093,0.776-1.453c0.32-0.358,0.777-0.693,1.38-0.996C95.995,43.152,96.764,42.986,97.626,42.986z
		 M100.107,40.687v1.428h-5.119v-1.428H100.107z M99.587,46.535c0-0.398-0.129-0.786-0.396-1.186
		c-0.121-0.194-0.321-0.348-0.603-0.459c-0.28-0.123-0.569-0.184-0.883-0.184c-0.556,0-1.022,0.151-1.396,0.448
		c-0.373,0.308-0.6,0.617-0.682,0.936l-0.119,0.444L99.587,46.535L99.587,46.535z"/>
	<path id="s43" d="M129.066,62.521c1.957-1.744,3.705-4.783,5.729-4.143c3.357,0.865,1.908,7.24,3.818,10.224
		c2.617-1.462,4.312-4.538,3.604-6.132c-0.153-0.457,0.038-1.57-2.11-0.605c-0.551,0.27-0.531-0.723-0.435-0.846
		c1.983-2.182,3.138-3.084,4.497-3.016c1.143,0.184,3.156,1.455,2.785,4.518c-0.764,4.55-7.498,11.707-9.754,11.451
		c-2.576,0.555-3.885-7.521-5.822-11.324l-1.779,0.686C128.869,63.447,128.971,62.986,129.066,62.521L129.066,62.521z"/>
	<path d="M89.302,38v-8.918H87v-3.208h2.302v-2.742c0-2.158,1.351-4.132,4.479-4.132c1.262,0,2.201,0.122,2.201,0.122l-0.074,3.006
		c0,0-0.955-0.012-1.998-0.012c-1.121,0-1.303,0.527-1.303,1.415v2.344H96l-0.148,3.208h-3.244V38H89.302z"/>
	<path fill="#1D9ED9" d="M44.288,82.404C45.429,83.437,46,84.695,46,86.181c0,1.484-0.571,2.757-1.712,3.827L35.499,98l-8.79-7.992
		C25.569,88.938,25,87.665,25,86.181c0-1.486,0.569-2.745,1.709-3.777C27.704,81.465,28.931,81,30.396,81
		c1.448,0,2.692,0.465,3.735,1.404l1.367,1.255l1.416-1.255C37.906,81.465,39.13,81,40.578,81
		C42.011,81,43.247,81.465,44.288,82.404z"/>
	<g>
		<path fill="#1D9ED9" d="M58.58,43.184C58.858,43.03,59,43.098,59,43.39v7.615c0,0.221-0.12,0.442-0.361,0.662
			C58.405,51.89,58.166,52,57.941,52H41.059c-0.23,0-0.458-0.11-0.698-0.333C40.122,51.446,40,51.226,40,51.004v-7.615
			c0-0.292,0.142-0.36,0.421-0.206l8.107,4.136c0.238,0.142,0.563,0.21,0.972,0.21c0.405,0,0.73-0.069,0.975-0.21L58.58,43.184z"/>
		<path fill="#1D9ED9" d="M40.043,40.285C40.07,40.095,40.255,40,40.589,40h17.86c0.536,0,0.677,0.217,0.424,0.668
			c-0.115,0.2-0.283,0.352-0.508,0.449c-0.114,0.049-0.794,0.408-2.045,1.053l-3.802,2.009c-1.308,0.693-1.993,1.047-2.043,1.075
			c-0.231,0.138-0.555,0.207-0.975,0.207c-0.409,0-0.734-0.069-0.972-0.207c-0.053-0.028-0.738-0.382-2.046-1.075l-3.8-2.009
			c-1.252-0.645-1.937-1.003-2.045-1.053C40.184,40.868,39.986,40.591,40.043,40.285z"/>
	</g>
	<g>
		<path fill="#1D9ED9" d="M3.203,20.171C4.007,19.391,4.983,19,6.137,19c1.152,0,2.133,0.392,2.937,1.172
			c0.8,0.779,1.202,1.724,1.202,2.83c0,1.105-0.409,2.048-1.225,2.82C8.221,26.608,7.251,27,6.137,27
			c-1.112,0-2.082-0.392-2.91-1.178C2.404,25.049,2,24.107,2,23.001S2.401,20.951,3.203,20.171z"/>
		<path fill="#1D9ED9" d="M16.859,27c-1.11,0-2.08-0.392-2.908-1.178c-0.818-0.772-1.227-1.715-1.227-2.82
			c0-1.106,0.401-2.051,1.201-2.83C14.731,19.391,15.707,19,16.859,19c1.154,0,2.137,0.392,2.938,1.172
			c0.8,0.779,1.203,1.724,1.203,2.83c0,1.105-0.41,2.048-1.228,2.82C18.943,26.608,17.975,27,16.859,27z"/>
	</g>
	<path fill="#1D9ED9" d="M138,83.009c-0.559,0.851-1.275,1.597-2.143,2.231v0.549c0,1.974-0.459,3.873-1.375,5.701
		c-0.909,1.835-2.326,3.373-4.244,4.623c-1.928,1.259-4.137,1.887-6.622,1.887c-2.416,0-4.624-0.64-6.616-1.91
		c0.275,0.031,0.622,0.047,1.048,0.047c1.994,0,3.777-0.61,5.345-1.819c-0.974-0.031-1.822-0.329-2.543-0.893
		c-0.73-0.562-1.219-1.264-1.478-2.117c0.137,0.063,0.396,0.083,0.778,0.083c0.393,0,0.779-0.037,1.141-0.13
		c-0.958-0.205-1.768-0.69-2.432-1.474c-0.664-0.78-0.993-1.704-0.993-2.767v-0.049c0.549,0.306,1.185,0.489,1.913,0.548
		c-1.272-0.882-1.913-2.082-1.913-3.601c0-0.715,0.196-1.429,0.59-2.14c2.362,2.871,5.328,4.357,8.907,4.465
		c-0.094-0.272-0.137-0.592-0.137-0.959c0-1.184,0.422-2.192,1.266-3.032c0.847-0.832,1.869-1.253,3.068-1.253
		c1.248,0,2.287,0.442,3.106,1.322c0.88-0.182,1.796-0.518,2.743-1.002c-0.294,1.002-0.917,1.798-1.877,2.375
		C136.372,83.566,137.193,83.344,138,83.009z"/>
	<g>
		<path fill="#1D9ED9" d="M150.82,81.105V81h-4.887c-1.072,0-2.142,0.377-3.203,1.104c-0.478,0.33-0.888,0.825-1.213,1.481
			c-0.338,0.664-0.502,1.357-0.502,2.127c0,1.679,0.528,2.817,1.573,3.455c0.664,0.414,1.437,0.654,2.334,0.654h0.295l-0.053,0.293
			c0,0.588,0.235,1.219,0.681,1.883h-0.039c-0.99,0-2.117,0.206-3.369,0.579c-0.709,0.25-1.308,0.643-1.758,1.254
			c-0.453,0.568-0.681,1.295-0.681,2.151c0,0.873,0.194,1.613,0.599,2.213c0.381,0.593,0.924,1.026,1.586,1.249
			c1.019,0.375,1.926,0.557,2.739,0.557c0.019,0,0.052-0.039,0.08-0.039l0.085,0.021h0.077c1.173,0,2.231-0.244,3.185-0.723
			c1.635-0.779,2.461-2.165,2.461-4.17c0-1.26-0.736-2.547-2.203-3.849c-0.711-0.664-1.062-1.15-1.062-1.391
			c0-0.221,0.273-0.609,0.805-1.161c0.959-0.797,1.447-1.941,1.447-3.39c0-0.92-0.109-1.625-0.316-2.131
			c-0.197-0.487-0.575-0.87-1.131-1.165c0.153-0.082,0.431-0.119,0.812-0.119C150.262,81.645,150.82,81.418,150.82,81.105z
			 M147.932,93.646c0.568,0.447,0.879,1.068,0.938,1.821c0.047,0.74-0.218,1.385-0.806,1.896c-0.529,0.496-1.262,0.781-2.181,0.852
			c-0.93,0.107-1.774-0.057-2.532-0.465c-0.763-0.42-1.182-0.994-1.23-1.77c-0.059-0.796,0.275-1.479,0.986-2.067
			c0.703-0.578,1.481-0.92,2.313-0.92h0.347C146.652,92.994,147.361,93.207,147.932,93.646z M147.525,87.088
			c-0.299,0.789-0.746,1.252-1.336,1.436c-0.113,0.051-0.241,0.051-0.383,0.051c-0.537,0-1.041-0.27-1.502-0.727
			c-0.449-0.443-0.781-1.033-0.988-1.764c-0.188-0.726-0.183-1.513,0.035-2.353c0.252-0.719,0.648-1.171,1.227-1.333
			c0.145-0.031,0.283-0.049,0.426-0.049c1.299,0,2.159,0.776,2.581,2.327C147.843,85.519,147.827,86.309,147.525,87.088z"/>
		<polygon fill="#1D9ED9" points="155.791,88.457 159,88.457 159,90.454 155.791,90.454 155.791,93.725 153.83,93.725 
			153.83,90.454 150.622,90.454 150.622,88.457 153.83,88.457 153.83,85.188 155.791,85.188 		"/>
	</g>
	<g>
		<path fill="#1D9ED9" d="M166,130c-5.521,0-10,4.479-10,10c0,4.096,2.463,7.611,5.986,9.159c-0.028-0.698-0.006-1.536,0.174-2.296
			c0.191-0.812,1.287-5.449,1.287-5.449s-0.32-0.639-0.32-1.582c0-1.48,0.859-2.589,1.93-2.589c0.908,0,1.348,0.683,1.348,1.501
			c0,0.914-0.582,2.283-0.883,3.55c-0.25,1.06,0.531,1.926,1.578,1.926c1.896,0,3.172-2.434,3.172-5.317
			c0-2.19-1.477-3.832-4.162-3.832c-3.032,0-4.922,2.263-4.922,4.791c0,0.869,0.256,1.484,0.658,1.961
			c0.187,0.219,0.211,0.306,0.146,0.557c-0.05,0.184-0.158,0.627-0.205,0.803c-0.065,0.254-0.271,0.344-0.5,0.252
			c-1.397-0.57-2.05-2.103-2.05-3.822c0-2.84,2.396-6.245,7.148-6.245c3.817,0,6.33,2.762,6.33,5.728
			c0,3.924-2.181,6.854-5.396,6.854c-1.078,0-2.094-0.583-2.441-1.246c0,0-0.581,2.304-0.705,2.749
			c-0.211,0.771-0.627,1.542-1.006,2.143c0.898,0.266,1.85,0.41,2.834,0.41c5.521,0,10-4.479,10-10.001
			C176,134.479,171.521,130,166,130z"/>
	</g>
	<path fill="#1D9ED9" d="M140.842,177.762c-0.082,0.896-0.443,1.625-1.082,2.196c-0.64,0.573-1.436,0.874-2.396,0.918
		c-2.068,0.077-4.858,0.124-8.365,0.124c-3.551,0-6.34-0.047-8.361-0.124c-0.967-0.044-1.769-0.345-2.418-0.918
		c-0.648-0.571-1.002-1.3-1.066-2.196c-0.104-1.806-0.151-3.166-0.151-4.07c0-0.922,0.048-2.264,0.151-4.047
		c0.064-0.916,0.418-1.648,1.066-2.229c0.649-0.57,1.451-0.867,2.418-0.889c2.021-0.104,4.812-0.157,8.361-0.157
		s6.338,0.054,8.365,0.157c0.961,0.021,1.757,0.316,2.396,0.889c0.639,0.579,1,1.312,1.082,2.229
		c0.102,1.783,0.158,3.125,0.158,4.047C141,174.596,140.943,175.956,140.842,177.762z M123.889,170.049v-1.398h-5.045v1.398h1.695
		v8.21h1.627v-8.21H123.889z M123.764,153h2.068l-1.535,4.605c-0.021,0.043-0.145,0.369-0.359,0.961
		c-0.221,0.604-0.367,1.057-0.455,1.377v4.938h-2.006v-4.729c-0.021-0.168-0.305-0.955-0.84-2.358L119.034,153h2.065l1.287,4.725
		h0.151L123.764,153z M127.994,178.259v-7.086h-1.412v5.378c-0.311,0.348-0.604,0.524-0.878,0.524c-0.249,0-0.376-0.154-0.376-0.466
		v-5.438h-1.471v5.967c0,0.812,0.345,1.217,1.031,1.217c0.551,0,1.109-0.295,1.692-0.861v0.765H127.994L127.994,178.259z
		 M128.432,155.887c0.734,0,1.336,0.215,1.817,0.615c0.481,0.396,0.724,0.961,0.724,1.658v4.517c0,0.759-0.236,1.363-0.707,1.79
		c-0.468,0.416-1.109,0.631-1.927,0.631c-0.774,0-1.397-0.224-1.88-0.67c-0.48-0.439-0.723-1.035-0.723-1.781v-4.508
		c0-0.738,0.256-1.293,0.767-1.668C127.02,156.077,127.656,155.887,128.432,155.887z M128.87,157.585
		c-0.167-0.128-0.345-0.207-0.531-0.207c-0.188,0-0.356,0.075-0.503,0.188c-0.143,0.125-0.216,0.279-0.216,0.468v4.797
		c0,0.479,0.237,0.719,0.719,0.719c0.519,0,0.784-0.239,0.784-0.719v-4.797C129.123,157.868,129.039,157.718,128.87,157.585z
		 M133.604,172.85c0-1.183-0.461-1.774-1.381-1.774c-0.477,0-0.92,0.21-1.313,0.653v-3.078h-1.476v9.608h1.476v-0.56
		c0.438,0.417,0.896,0.629,1.377,0.629c0.879,0,1.317-0.525,1.317-1.564V172.85z M132.128,172.91v3.74
		c0,0.367-0.168,0.549-0.501,0.549c-0.268,0-0.508-0.092-0.719-0.278v-4.442c0.188-0.195,0.395-0.283,0.624-0.283
		C131.934,172.195,132.128,172.432,132.128,172.91z M137.646,164.883h-1.787v-0.994c-0.731,0.729-1.428,1.092-2.096,1.092
		c-0.861,0-1.289-0.52-1.289-1.565v-7.302h1.814v6.719c0,0.395,0.163,0.583,0.488,0.583c0.322,0,0.684-0.218,1.082-0.679v-6.623
		h1.785v8.77H137.646z M134.729,176.236c0,0.662,0.184,1.197,0.551,1.611c0.367,0.396,0.879,0.6,1.55,0.6
		c1.438,0,2.163-0.736,2.163-2.211v-0.525h-1.473v0.314v0.313c0,0.054-0.006,0.149-0.017,0.255c-0.012,0.114-0.03,0.197-0.062,0.26
		c-0.031,0.043-0.068,0.099-0.111,0.164c-0.038,0.058-0.104,0.105-0.188,0.145c-0.084,0.029-0.176,0.037-0.277,0.037
		c-0.42,0-0.631-0.332-0.631-0.992v-1.332h2.758v-1.807c0-0.646-0.176-1.152-0.536-1.527c-0.353-0.368-0.853-0.559-1.497-0.559
		c-0.648,0-1.184,0.197-1.602,0.592c-0.42,0.394-0.629,0.886-0.629,1.494V176.236L134.729,176.236z M137.52,173.773h-1.285v-0.769
		c0-0.519,0.224-0.778,0.656-0.778c0.422,0,0.629,0.26,0.629,0.778V173.773z"/>
	<g>
		<path fill="#1D9ED9" d="M56.492,213.904h1.963l-1.459,4.341c-0.018,0.041-0.133,0.353-0.335,0.903
			c-0.21,0.566-0.339,0.998-0.428,1.291v4.68h-1.887v-4.475c0-0.155-0.306-0.903-0.821-2.223L52,213.904h1.958l1.219,4.511h0.153
			L56.492,213.904z"/>
		<path fill="#1D9ED9" d="M62.618,217.216c-0.457-0.393-1.028-0.579-1.723-0.579c-0.739,0-1.332,0.18-1.819,0.543
			c-0.485,0.368-0.715,0.889-0.715,1.577v4.222c0,0.699,0.212,1.265,0.669,1.685c0.457,0.42,1.045,0.619,1.781,0.619
			c0.775,0,1.38-0.191,1.826-0.591c0.448-0.399,0.665-0.965,0.665-1.68v-4.229C63.301,218.116,63.076,217.598,62.618,217.216z
			 M61.508,223.157c0,0.448-0.212,0.669-0.705,0.669c-0.457,0-0.649-0.221-0.649-0.669v-4.5c0-0.181,0.056-0.324,0.196-0.437
			c0.134-0.113,0.288-0.186,0.465-0.186c0.179,0,0.32,0.076,0.48,0.203c0.158,0.121,0.214,0.262,0.214,0.418L61.508,223.157
			L61.508,223.157z"/>
		<path fill="#1D9ED9" d="M89.58,218.6v4.338c0,0.426-0.205,0.658-0.592,0.658c-0.322,0-0.582-0.119-0.851-0.326v-5.177
			c0.181-0.229,0.474-0.323,0.738-0.323C89.342,217.77,89.58,218.036,89.58,218.6z"/>
		<path fill="#1D9ED9" d="M68.954,225.119h-1.62v-0.971c-0.721,0.684-1.368,1.024-2,1.024c-0.816,0-1.23-0.489-1.23-1.465v-6.896
			h1.705v6.344c0,0.365,0.173,0.552,0.48,0.552c0.309,0,0.595-0.215,1.045-0.632v-6.264h1.62V225.119z"/>
		<path fill="#1D9ED9" d="M95.863,219.645h-1.438v-0.945c0-0.594,0.229-0.898,0.736-0.898c0.492,0,0.701,0.305,0.701,0.898V219.645z
			"/>
		<path fill="#1D9ED9" d="M99.812,214.805c-0.099-1.074-0.52-1.938-1.267-2.594c-0.752-0.66-1.688-1.012-2.819-1.031
			c-2.384-0.127-5.663-0.18-9.837-0.18c-4.176,0-7.457,0.053-9.836,0.18c-1.13,0.021-2.078,0.371-2.836,1.031
			c-0.764,0.656-1.177,1.52-1.251,2.594c-0.127,2.067-0.186,3.639-0.186,4.692c0,1.065,0.058,2.639,0.186,4.741
			c0.074,1.033,0.487,1.881,1.251,2.547c0.759,0.662,1.706,1.023,2.836,1.07c2.38,0.096,5.661,0.145,9.836,0.145
			c4.129,0,7.405-0.049,9.837-0.145c1.131-0.047,2.067-0.408,2.819-1.07c0.747-0.666,1.168-1.514,1.267-2.547
			c0.127-2.104,0.188-3.676,0.188-4.741C100,218.441,99.939,216.872,99.812,214.805z M77.893,224.852h-1.975v-9.621h-1.98v-1.584
			h5.931v1.584h-1.976V224.852z M84.723,224.852h-1.706v-0.926c-0.626,0.662-1.319,1.002-1.959,1.002
			c-0.812,0-1.189-0.471-1.189-1.418v-6.953h1.708v6.35c0,0.363,0.132,0.537,0.423,0.537c0.324,0,0.658-0.195,1.017-0.615v-6.271
			h1.706V224.852z M91.283,223.085c0,1.202-0.508,1.806-1.533,1.806c-0.566,0-1.072-0.24-1.613-0.727v0.688h-1.703v-11.205h1.703
			v3.571c0.45-0.497,0.974-0.76,1.54-0.76c1.077,0,1.606,0.687,1.606,2.062V223.085z M97.662,220.88h-3.236v1.556
			c0,0.766,0.234,1.16,0.727,1.16c0.121,0,0.228-0.016,0.326-0.063c0.099-0.037,0.17-0.089,0.211-0.169
			c0.053-0.069,0.095-0.127,0.131-0.191c0.035-0.059,0.037-0.156,0.05-0.281c0.019-0.135-0.005-0.246-0.005-0.311v-0.361v-0.363
			h1.798v0.607c0,1.719-0.856,2.573-2.55,2.573c-0.786,0-1.4-0.236-1.831-0.705c-0.431-0.472-0.652-1.083-0.652-1.868v-3.68
			c0-0.701,0.245-1.293,0.74-1.738c0.485-0.463,1.118-0.689,1.875-0.689c0.763,0,1.364,0.217,1.786,0.644
			c0.41,0.446,0.632,1.024,0.632,1.785L97.662,220.88L97.662,220.88z"/>
	</g>
	<path fill="#1D9ED9" d="M139,35.977c-1.266,0.679-2.632,1.022-4.086,1.022c-0.771,0-1.491-0.096-2.161-0.316
		c-0.672-0.246-1.205-0.55-1.606-0.903c-0.461-0.385-0.763-0.803-0.906-1.249c-0.184-0.402-0.276-1.031-0.276-1.878V26.35H128
		v-2.535c1.4-0.479,2.406-1.327,3.023-2.546c0.314-0.694,0.513-1.446,0.59-2.27h2.554v4.534h4.244v2.816h-4.244v4.622
		c0,1.085,0.058,1.753,0.158,1.993c0.147,0.323,0.354,0.562,0.63,0.706c0.379,0.262,0.822,0.391,1.335,0.391
		c0.892,0,1.795-0.295,2.71-0.901V35.977L139,35.977z"/>
	<g>
		<path fill="#1D9ED9" d="M5.625,59.734c0,0.509-0.177,0.924-0.533,1.252C4.734,61.31,4.3,61.473,3.777,61.473
			c-0.5,0-0.922-0.163-1.267-0.497C2.17,60.645,2,60.229,2,59.734c0-0.517,0.167-0.925,0.501-1.243C2.84,58.167,3.277,58,3.812,58
			c0.531,0,0.962,0.167,1.288,0.491C5.428,58.81,5.603,59.218,5.625,59.734z"/>
		<rect x="2.104" y="62.838" fill="#1D9ED9" width="3.414" height="11.162"/>
		<path fill="#1D9ED9" d="M7.544,66.417c0-1.187-0.022-2.381-0.066-3.579h2.95l0.176,1.549h0.068
			c0.713-1.209,1.843-1.798,3.378-1.798c1.281,0,2.26,0.435,2.933,1.292C17.662,64.75,18,65.922,18,67.382V74h-3.413v-6.172
			c0-1.619-0.578-2.427-1.746-2.427c-0.813,0-1.396,0.435-1.741,1.293c-0.072,0.153-0.107,0.446-0.107,0.87V74H7.544V66.417z"/>
	</g>
	<path fill="#1D9ED9" d="M56,150c-2.751,0-5.108-0.975-7.065-2.93c-1.959-1.961-2.935-4.313-2.935-7.077
		c0-2.75,0.976-5.104,2.935-7.058C50.893,130.975,53.25,130,56,130c2.753,0,5.105,0.975,7.062,2.938
		c1.956,1.953,2.938,4.307,2.938,7.057c0,2.764-0.981,5.117-2.938,7.078C61.105,149.025,58.753,150,56,150z M56.917,139.951
		c-0.164-0.441-0.398-0.938-0.696-1.475c-2.651,0.814-5.568,1.222-8.739,1.222v0.295c0,2.183,0.723,4.077,2.173,5.706
		c0.125-0.217,0.22-0.37,0.282-0.456c0.61-0.896,1.354-1.759,2.237-2.599c0.537-0.504,1.22-0.996,2.044-1.481
		c0.829-0.487,1.624-0.861,2.389-1.116C56.708,139.979,56.815,139.951,56.917,139.951z M55.521,137.18
		c-0.692-1.24-1.576-2.641-2.65-4.213c-0.277-0.408-0.451-0.648-0.522-0.711c-1.159,0.57-2.153,1.369-2.989,2.415
		c-0.837,1.046-1.4,2.222-1.707,3.548C50.289,138.219,52.915,137.874,55.521,137.18z M50.739,146.705l-0.175-0.141
		C50.652,146.648,50.715,146.705,50.739,146.705z M57.479,141.391c-3.131,1.074-5.365,2.827-6.694,5.26l-0.046,0.056
		c1.583,1.214,3.334,1.817,5.261,1.817c1.101,0,2.213-0.231,3.348-0.693c-0.348-2.041-0.959-4.198-1.825-6.484L57.479,141.391z
		 M61.656,133.568c-1.672-1.426-3.553-2.142-5.655-2.142c-0.707,0-1.376,0.087-2,0.265c1.143,1.514,2.205,3.162,3.178,4.965
		c2.01-0.771,3.489-1.791,4.43-3.047L61.656,133.568z M58.389,139.174l0.223,0.428c1.589-0.186,3.256-0.146,4.995,0.14
		c0.508,0.077,0.81,0.147,0.912,0.175c0-2.02-0.636-3.798-1.911-5.354l-0.173,0.219c-0.261,0.33-0.75,0.791-1.479,1.373
		c-0.928,0.716-1.971,1.32-3.129,1.8C58.029,138.364,58.214,138.768,58.389,139.174z M59.133,140.954
		c0.754,2.121,1.3,4.147,1.652,6.096c2.013-1.327,3.23-3.217,3.646-5.705c-0.068-0.042-0.351-0.122-0.845-0.235
		C62.078,140.77,60.594,140.706,59.133,140.954z"/>
	<path fill="#1D9ED9" d="M43.434,142.087c0.145-0.655,0.218-1.328,0.218-2.009c0-2.596-0.927-4.814-2.782-6.66
		c-1.842-1.839-4.085-2.748-6.738-2.748c-0.612,0-1.162,0.057-1.653,0.165c-0.882-0.567-1.87-0.835-2.955-0.835
		c-1.556,0-2.855,0.529-3.916,1.579c-1.07,1.071-1.608,2.354-1.608,3.837c0,1.023,0.261,1.963,0.785,2.791
		c-0.151,0.611-0.219,1.238-0.219,1.871c0,2.619,0.933,4.84,2.804,6.673c1.871,1.837,4.125,2.75,6.763,2.75
		c0.348,0,0.923-0.05,1.733-0.169c0.858,0.455,1.729,0.668,2.613,0.668c1.506,0,2.806-0.527,3.891-1.602
		c1.085-1.073,1.63-2.35,1.63-3.856C44,143.743,43.812,142.92,43.434,142.087z M39,144.592c-0.407,0.579-1.04,1.062-1.916,1.457
		c-0.872,0.332-1.869,0.5-2.998,0.5c-1.367,0-2.503-0.236-3.435-0.712c-0.577-0.321-1.087-0.758-1.521-1.315
		c-0.432-0.56-0.654-1.139-0.654-1.769c0-0.347,0.143-0.646,0.415-0.89c0.275-0.24,0.597-0.361,0.98-0.361
		c0.287,0,0.576,0.096,0.867,0.293c0.248,0.234,0.421,0.514,0.523,0.832c0.01,0.014,0.197,0.333,0.562,0.965
		c0.407,0.545,1.132,0.833,2.175,0.833c0.693,0,1.311-0.151,1.847-0.446c0.535-0.293,0.804-0.694,0.804-1.226
		c0-0.39-0.127-0.683-0.39-0.877c-0.246-0.253-0.58-0.444-0.999-0.583c-1.031-0.254-1.611-0.395-1.742-0.421
		c-0.985-0.188-1.826-0.443-2.52-0.744c-0.624-0.246-1.176-0.624-1.651-1.171c-0.407-0.516-0.61-1.145-0.61-1.869
		c0-0.807,0.232-1.459,0.697-1.986c0.465-0.525,1.072-0.926,1.827-1.183c0.78-0.306,1.708-0.455,2.781-0.455
		c0.752,0,1.492,0.095,2.218,0.29c0.68,0.236,1.213,0.501,1.609,0.785c0.364,0.332,0.665,0.668,0.914,1.004
		c0.201,0.458,0.303,0.82,0.303,1.076c0,0.363-0.138,0.676-0.414,0.947c-0.274,0.258-0.6,0.389-0.977,0.389
		c-0.308,0-0.583-0.073-0.824-0.24c-0.12-0.128-0.311-0.359-0.57-0.766c-0.162-0.35-0.438-0.696-0.824-1.032
		c-0.35-0.251-0.888-0.374-1.609-0.374c-0.727,0-1.274,0.139-1.653,0.412c-0.406,0.256-0.609,0.547-0.609,0.883
		c0,0.223,0.076,0.403,0.217,0.541c0.363,0.503,1.245,0.854,2.656,1.037c0.315,0.072,1.011,0.249,2.082,0.541
		c0.57,0.186,1.12,0.426,1.657,0.746c0.474,0.326,0.839,0.695,1.087,1.137c0.226,0.487,0.349,1.036,0.349,1.652
		C39.655,143.256,39.436,143.945,39,144.592z"/>
	<path fill="#1D9ED9" d="M132.438,40c1.082,0,1.934,0.271,2.57,0.827c0.635,0.552,0.948,1.323,0.948,2.313
		c0,0.505-0.134,0.969-0.399,1.394c-0.265,0.423-0.6,0.672-1.006,0.758l-0.476,0.072c0.763,0,1.323,0.248,1.698,0.727
		c0.401,0.51,0.609,0.998,0.623,1.461v0.733c0,0.625-0.127,1.202-0.381,1.701c-0.256,0.506-0.597,0.876-1.022,1.108
		c-0.701,0.39-1.427,0.614-2.156,0.694H126V40H132.438z M132.24,44.707c0.408,0,0.693-0.111,0.848-0.324
		c0.153-0.228,0.23-0.579,0.23-1.065c0-0.295-0.061-0.552-0.18-0.794c-0.125-0.232-0.293-0.373-0.502-0.409l-0.201-0.033h-3.595
		v2.626L132.24,44.707L132.24,44.707z M133.759,48.138c0-0.488-0.11-0.863-0.319-1.127c-0.23-0.29-0.441-0.436-0.642-0.446
		l-0.36-0.029h-3.596v3.132h3.436C133.266,49.667,133.759,49.161,133.759,48.138z M141.634,42.986c0.863,0,1.63,0.168,2.286,0.503
		c0.662,0.335,1.13,0.771,1.409,1.308c0.507,0.992,0.728,1.913,0.657,2.755l-0.035,0.546h-6.403c0,0.655,0.181,1.154,0.543,1.504
		c0.361,0.343,0.726,0.505,1.103,0.505l0.517,0.036c0.603,0,1.071-0.104,1.419-0.312c0.348-0.196,0.529-0.407,0.541-0.603
		l0.041-0.331h2.16c0,1.003-0.354,1.759-1.062,2.269c-0.703,0.516-1.404,0.792-2.094,0.798L141.634,52
		c-0.883,0-1.67-0.141-2.358-0.421c-0.696-0.285-1.198-0.675-1.52-1.161c-0.587-0.878-0.883-1.692-0.883-2.426v-0.476
		c0-0.453,0.104-0.974,0.301-1.586c0.199-0.619,0.46-1.093,0.776-1.453c0.321-0.358,0.782-0.693,1.383-0.996
		C139.997,43.152,140.766,42.986,141.634,42.986z M144.109,40.687v1.428h-5.116v-1.428H144.109z M143.596,46.535
		c0-0.398-0.14-0.786-0.406-1.186c-0.115-0.194-0.317-0.348-0.597-0.459c-0.28-0.123-0.575-0.184-0.884-0.184
		c-0.559,0-1.021,0.151-1.396,0.448c-0.373,0.308-0.599,0.617-0.683,0.936l-0.116,0.444L143.596,46.535L143.596,46.535z"/>
	<path id="s43_1_" fill="#1D9ED9" d="M109.066,62.521c1.957-1.744,3.705-4.783,5.729-4.143c3.357,0.865,1.908,7.24,3.82,10.224
		c2.617-1.462,4.311-4.538,3.604-6.132c-0.154-0.457,0.037-1.57-2.111-0.605c-0.551,0.27-0.53-0.723-0.434-0.846
		c1.982-2.182,3.137-3.084,4.496-3.016c1.143,0.184,3.156,1.455,2.785,4.518c-0.764,4.55-7.498,11.707-9.754,11.451
		c-2.576,0.555-3.885-7.521-5.822-11.324l-1.779,0.686C108.869,63.447,108.971,62.986,109.066,62.521L109.066,62.521z"/>
	<path fill="#1D9ED9" d="M67.302,38v-8.918H65v-3.208h2.302v-2.742c0-2.158,1.351-4.132,4.479-4.132
		c1.263,0,2.201,0.122,2.201,0.122l-0.073,3.006c0,0-0.956-0.012-2-0.012c-1.121,0-1.302,0.527-1.302,1.415v2.344H74l-0.148,3.208
		h-3.244V38H67.302z"/>
	<g>
		<path fill="#FFFFFF" d="M160.975,216.195c-0.562,0-1.025-0.432-1.025-1.002s0.465-1,1.025-1c0.559,0,1.025,0.43,1.025,1
			C162,215.766,161.532,216.195,160.975,216.195z M160.975,214.339c-0.47,0-0.845,0.37-0.845,0.854s0.375,0.855,0.845,0.855
			c0.473,0,0.846-0.371,0.846-0.855C161.818,214.709,161.445,214.339,160.975,214.339z M161.35,215.747h-0.103
			c-0.022,0-0.037-0.006-0.046-0.021c-0.027-0.049-0.047-0.086-0.082-0.143c-0.085-0.132-0.129-0.206-0.198-0.279
			c-0.017-0.018-0.036-0.033-0.065-0.033h-0.037v0.416c0,0.027-0.023,0.058-0.055,0.058h-0.068c-0.031,0-0.057-0.029-0.057-0.058
			v-1.004c0-0.031,0.024-0.055,0.057-0.055h0.291c0.255,0,0.38,0.145,0.38,0.311c0,0.156-0.093,0.302-0.298,0.308
			c0.059,0.028,0.185,0.201,0.32,0.438C161.402,215.71,161.396,215.747,161.35,215.747z M160.932,214.771h-0.113v0.355h0.108
			c0.195,0,0.251-0.055,0.251-0.184C161.178,214.816,161.087,214.771,160.932,214.771z"/>
		<path fill="#FFFFFF" d="M110.893,220.008c0.758-0.672,1.176-1.531,1.174-2.422v-0.389l1.867-0.002
			c-0.097-0.532-0.287-1.061-0.58-1.555c-0.123-0.205-0.258-0.399-0.404-0.58l-1.788,1.006c1.12,1.892-0.099,3.566-1.582,4.402
			c-0.442,0.25-0.978,0.453-1.54,0.568c0.068,0.002,0.135,0.004,0.203,0.004C109.186,221.04,110.152,220.664,110.893,220.008z"/>
		<path fill="#FFFFFF" d="M115.385,214.493c-1.98-3.341-6.379-4.485-9.804-2.556c-3.427,1.933-4.599,6.226-2.618,9.566
			c1.98,3.344,6.377,4.489,9.803,2.557C116.188,222.129,117.363,217.838,115.385,214.493z M104.646,220.555
			c-1.444-2.437-0.588-5.563,1.908-6.972c2.496-1.41,5.702-0.573,7.145,1.86c1.447,2.438,0.587,5.566-1.904,6.974
			C109.294,223.828,106.091,222.991,104.646,220.555z"/>
		<path fill="#FFFFFF" d="M109.749,221.543c1.086-0.283,1.989-0.96,2.549-1.906l0.2-0.341l1.084,0.611
			c0.273-0.601,0.42-1.255,0.42-1.915c0-0.137-0.006-0.271-0.018-0.406h-1.518c0,2.102-2.074,3.85-4.227,3.85
			c-0.557,0-1.112-0.093-1.633-0.273C107.568,221.688,108.682,221.823,109.749,221.543z"/>
		<path fill="#FFFFFF" d="M106.367,221.479c-0.633-0.357-1.148-0.842-1.528-1.398c0.05,0.094,0.099,0.188,0.154,0.279
			c1.332,2.252,4.292,3.022,6.596,1.723c0.798-0.449,1.408-1.087,1.819-1.818l-0.766-0.432
			C111.378,221.977,108.562,222.714,106.367,221.479z"/>
		<path fill="#FFFFFF" d="M138.998,218.535c0-2.161-1.239-2.803-2.579-2.803c-1.562,0-2.642,1.054-2.642,2.781
			c0,1.855,1.097,2.853,3.105,2.853c0.613,0,1.024-0.063,1.359-0.151c0.176-0.05,0.256-0.158,0.203-0.29l-0.116-0.303
			c-0.05-0.119-0.164-0.207-0.375-0.172c-0.328,0.063-0.661,0.114-1.086,0.114c-1.31,0-1.824-0.631-1.88-1.787h3.716
			C138.866,218.777,138.998,218.663,138.998,218.535z M134.988,218.046c0.173-1.362,0.977-1.58,1.457-1.58
			c0.962,0,1.328,0.812,1.356,1.58H134.988z"/>
		<path fill="#FFFFFF" d="M159.93,218.535c0-2.161-1.24-2.803-2.58-2.803c-1.562,0-2.641,1.054-2.641,2.781
			c0,1.855,1.094,2.853,3.105,2.853c0.615,0,1.026-0.063,1.36-0.151c0.175-0.05,0.253-0.158,0.204-0.29l-0.117-0.303
			c-0.054-0.119-0.164-0.207-0.379-0.172c-0.324,0.063-0.658,0.114-1.084,0.114c-1.311,0-1.824-0.631-1.878-1.787h3.716
			C159.798,218.777,159.93,218.663,159.93,218.535z M155.922,218.046c0.174-1.362,0.975-1.58,1.454-1.58
			c0.963,0,1.329,0.812,1.354,1.58H155.922z"/>
		<path fill="#FFFFFF" d="M124.018,221.366c-0.627,0-1.416-0.115-1.939-0.32c-0.176-0.067-0.217-0.172-0.159-0.31l0.13-0.344
			c0.059-0.16,0.219-0.207,0.381-0.147c0.463,0.183,1.032,0.308,1.616,0.308c0.728,0,1.062-0.273,1.062-0.742
			c0-1.043-2.983-1.056-2.983-2.588c0-0.884,0.856-1.488,2.229-1.488c0.686,0,1.125,0.104,1.5,0.24
			c0.146,0.057,0.19,0.172,0.133,0.309l-0.133,0.285c-0.057,0.139-0.203,0.16-0.363,0.115c-0.293-0.093-0.744-0.205-1.18-0.205
			c-0.654,0-1.035,0.264-1.035,0.674c0,0.963,3.018,0.994,3.018,2.668C126.29,220.727,125.414,221.366,124.018,221.366z"/>
		<path fill="#FFFFFF" d="M144.012,221.229c-0.406,0.104-0.83,0.139-1.326,0.139c-1.707,0-2.844-1.02-2.844-2.865
			c0-1.624,1.211-2.768,2.828-2.768c0.496,0,0.977,0.104,1.24,0.193c0.189,0.069,0.277,0.16,0.218,0.286l-0.146,0.332
			c-0.043,0.113-0.146,0.205-0.364,0.138c-0.231-0.068-0.581-0.16-0.991-0.16c-0.902,0-1.545,0.744-1.545,1.979
			c0,1.354,0.566,2.02,1.677,2.02c0.394,0,0.743-0.047,1.021-0.104c0.205-0.047,0.337,0.057,0.365,0.171l0.101,0.354
			C144.273,221.059,144.203,221.184,144.012,221.229z"/>
		<path fill="#FFFFFF" d="M147.607,221.366c-1.69,0-2.801-1.054-2.801-2.817c0-1.752,1.109-2.814,2.801-2.814
			c1.69,0,2.77,1.062,2.77,2.814C150.377,220.312,149.298,221.366,147.607,221.366z M147.578,216.499
			c-1.008,0-1.559,0.676-1.559,2.05c0,1.409,0.551,2.062,1.559,2.062c1.006,0,1.559-0.652,1.559-2.062
			C149.137,217.175,148.584,216.499,147.578,216.499z"/>
		<path fill="#FFFFFF" d="M154.309,216.288v-0.358c0-0.104-0.045-0.203-0.097-0.207h-0.671c-1.293,0-2.027,0.559-2.027,1.526v3.922
			c0,0.074,0.144,0.138,0.305,0.138h0.525c0.156,0,0.297-0.058,0.305-0.132v-3.591l0,0c0-0.874,0.44-1.092,1.129-1.092h0.435
			C154.264,216.494,154.309,216.396,154.309,216.288z"/>
		<path fill="#FFFFFF" d="M133.061,220.551h-0.434c-0.675-0.013-1.128-0.214-1.128-1.089l0,0v-2.94h1.021
			c0.049,0,0.094-0.095,0.094-0.197v-0.338c0-0.104-0.047-0.195-0.094-0.195h-1.021v-1.395c0-0.185-0.205-0.172-0.379-0.127
			l-0.541,0.149c-0.129,0.033-0.218,0.125-0.218,0.251v1.2c0,0,0,0.002,0,0.004c0,0,0,3.92,0,3.925c0,0.967,0.738,1.521,2.027,1.521
			h0.672c0.056,0,0.097-0.098,0.097-0.207v-0.354C133.157,220.65,133.116,220.551,133.061,220.551z"/>
		<path fill="#FFFFFF" d="M128.354,215.729l-0.539,0.148c-0.131,0.035-0.217,0.127-0.217,0.252v5.041
			c0,0.074,0.146,0.137,0.305,0.137h0.523c0.16,0,0.307-0.062,0.307-0.137c0-0.65,0-5.312,0-5.312
			C128.732,215.673,128.527,215.686,128.354,215.729z"/>
	</g>
	<path fill="#FFFFFF" d="M162,20.869c-0.148-0.212-0.316-0.415-0.51-0.604c-1.713-1.687-4.49-1.687-6.203,0
		c-1.717,1.69-1.717,4.429,0,6.118L162,33l6.715-6.617c1.713-1.689,1.713-4.428,0-6.118c-1.715-1.687-4.494-1.687-6.205,0
		C162.316,20.454,162.148,20.657,162,20.869z"/>
	<polygon fill="#FFFFFF" points="10,2 10,14 20,8 	"/>
	<g>
		<rect x="104" y="2" fill="#FFFFFF" width="4" height="12"/>
		<rect x="112" y="2" fill="#FFFFFF" width="4" height="12"/>
	</g>
	<rect x="118" y="2" fill="#FFFFFF" width="12" height="12"/>
	<polygon fill="#1D9ED9" points="22,2 22,14 32,8 	"/>
	<g>
		<rect x="132" y="2" fill="#1D9ED9" width="4" height="12"/>
		<rect x="140" y="2" fill="#1D9ED9" width="4" height="12"/>
	</g>
	<rect x="146" y="2" fill="#1D9ED9" width="12" height="12"/>
	<path fill="#FFFFFF" d="M76.803,58l2.326,3.064C77.15,62.393,69.092,68.695,78.388,78c0,0-4.667-7.733,4.134-11.609l1.753,2.164
		L87,59.736L76.803,58z"/>
	<path fill="#FFFFFF" d="M162.156,2l1.787,2.296c-1.517,0.997-7.723,5.727-0.567,12.704c0,0-3.593-5.798,3.185-8.705l1.35,1.619
		L170,3.3L162.156,2z"/>
	<path fill="#FFFFFF" d="M71.392,126.164L82.17,115.03l-10.778-11.195c-0.521-0.521-0.521-1.002,0-1.444
		c0.522-0.521,1.004-0.521,1.445,0l11.803,11.857c0.48,0.521,0.48,1.023,0,1.504l-11.803,11.857c-0.441,0.521-0.923,0.521-1.445,0
		C70.87,127.167,70.87,126.686,71.392,126.164z"/>
	<path fill="#FFFFFF" d="M36.624,126.165c0.502,0.521,0.502,1.003,0,1.444c-0.503,0.521-0.984,0.521-1.446,0l-11.815-11.856
		c-0.482-0.481-0.482-0.982,0-1.504l11.815-11.857c0.462-0.521,0.943-0.521,1.446,0c0.502,0.442,0.502,0.923,0,1.445l-10.79,11.194
		L36.624,126.165z"/>
	<path d="M55.392,126.165l10.778-11.134l-10.778-11.195c-0.521-0.521-0.521-1.002,0-1.444c0.522-0.521,1.004-0.521,1.445,0
		l11.803,11.857c0.48,0.521,0.48,1.023,0,1.504l-11.803,11.856c-0.441,0.521-0.923,0.521-1.445,0
		C54.87,127.168,54.87,126.688,55.392,126.165z"/>
	<path d="M52.624,126.165c0.502,0.521,0.502,1.003,0,1.444c-0.503,0.521-0.984,0.521-1.446,0l-11.815-11.856
		c-0.482-0.481-0.482-0.982,0-1.504l11.815-11.857c0.462-0.521,0.943-0.521,1.446,0c0.502,0.442,0.502,0.923,0,1.445l-10.79,11.194
		L52.624,126.165z"/>
	<path fill="#FFFFFF" d="M46.903,66.019l6.857-6.889c0.319-0.321,0.319-0.618,0-0.889c-0.319-0.321-0.626-0.321-0.919,0L46,64.888
		l-6.833-6.647c-0.28-0.321-0.587-0.321-0.919,0c-0.33,0.271-0.33,0.568,0,0.889l6.85,6.889l-6.85,6.852
		c-0.33,0.321-0.33,0.616,0,0.888c0.332,0.321,0.639,0.321,0.919,0L46,67.112l6.842,6.647c0.293,0.321,0.6,0.321,0.919,0
		c0.319-0.272,0.319-0.567,0-0.888L46.903,66.019z"/>
	<path d="M64.903,66.019l6.857-6.889c0.319-0.321,0.319-0.618,0-0.889c-0.319-0.321-0.626-0.321-0.919,0L64,64.888l-6.833-6.647
		c-0.28-0.321-0.587-0.321-0.919,0c-0.33,0.271-0.33,0.568,0,0.889l6.85,6.889l-6.85,6.852c-0.33,0.321-0.33,0.616,0,0.888
		c0.332,0.321,0.639,0.321,0.919,0L64,67.112l6.842,6.647c0.293,0.321,0.6,0.321,0.919,0c0.319-0.272,0.319-0.567,0-0.888
		L64.903,66.019z"/>
	<path fill="#FFFFFF" d="M16.469,196.029l11.143-11.193c0.519-0.521,0.519-1.003,0-1.445c-0.52-0.521-1.017-0.521-1.494,0
		l-11.116,10.803L3.896,183.391c-0.456-0.521-0.954-0.521-1.492,0c-0.539,0.442-0.539,0.924,0,1.445l11.129,11.193L2.404,207.164
		c-0.539,0.521-0.539,1.003,0,1.445c0.538,0.521,1.036,0.521,1.492,0L15,197.807l11.116,10.803c0.478,0.521,0.975,0.521,1.494,0
		c0.519-0.442,0.519-0.924,0-1.445L16.469,196.029z"/>
	<path d="M44.469,196.029l11.143-11.193c0.519-0.521,0.519-1.003,0-1.445c-0.52-0.521-1.017-0.521-1.494,0l-11.116,10.803
		l-11.104-10.803c-0.456-0.521-0.954-0.521-1.492,0c-0.539,0.442-0.539,0.924,0,1.445l11.129,11.193l-11.129,11.135
		c-0.539,0.521-0.539,1.003,0,1.445c0.538,0.521,1.036,0.521,1.492,0l11.104-10.803l11.116,10.803c0.478,0.521,0.975,0.521,1.494,0
		c0.519-0.442,0.519-0.924,0-1.445L44.469,196.029z"/>
	<path fill="#FFFFFF" d="M171.096,102h-16.191c-1.051,0-1.903,0.853-1.903,1.905v10.476c0,1.052,0.853,1.619,1.903,1.619h8.572
		l5.523,6v-6h2.096c1.053,0,1.904-0.567,1.904-1.619v-10.476C173,102.853,172.146,102,171.096,102z"/>
	<path d="M108.096,130H91.904c-1.052,0-1.904,0.854-1.904,1.904v10.477c0,1.053,0.853,1.619,1.904,1.619h8.572l5.522,6v-6h2.097
		c1.051,0,1.903-0.566,1.903-1.619v-10.477C110,130.854,109.146,130,108.096,130z"/>
	<path fill="#1D9ED9" d="M20.096,130H3.904C2.853,130,2,130.854,2,131.904v10.477C2,143.434,2.853,144,3.904,144h8.572L18,150v-6
		h2.096c1.052,0,1.904-0.566,1.904-1.619v-10.477C22,130.854,21.147,130,20.096,130z"/>
</g>
</svg>
